<svg width="95" height="105" viewBox="0 0 95 105" fill="none" xmlns="http://www.w3.org/2000/svg">
<g filter="url(#filter0_dii_2572_6457)">
<path d="M34.7322 44.863L38.5386 43.7907C40.8718 43.1333 41.9837 40.4735 40.8125 38.3512L49.8217 45.84C47.9185 45.6574 46.302 47.2173 46.4167 49.1257L46.7985 55.4799L45.4756 51.6326C44.1059 47.6489 40.3864 44.9508 36.1743 44.8854L34.7322 44.863Z" fill="url(#paint0_linear_2572_6457)" fill-opacity="0.95" shape-rendering="crispEdges"/>
<path d="M38.6745 44.2722C40.7225 43.6951 41.9376 41.7559 41.7647 39.7936L48.5732 45.4529C46.9789 45.8877 45.8114 47.3932 45.9173 49.1561L46.079 51.8516L45.9483 51.4698C44.6838 47.7926 41.5125 45.1596 37.7594 44.5299L38.6745 44.2722Z" stroke="white" stroke-opacity="0.6" shape-rendering="crispEdges"/>
</g>
<g filter="url(#filter1_dii_2572_6457)">
<path d="M46.6987 55C46.6987 56.43 46.4237 57.805 45.9287 59.0517C44.6637 62.2417 41.9504 64.6983 38.5954 65.615C37.6787 65.8717 36.7071 66 35.6987 66C34.6904 66 33.7187 65.8717 32.8021 65.615C29.4471 64.6983 26.7337 62.2417 25.4687 59.0517C24.9737 57.805 24.6987 56.43 24.6987 55C24.6987 48.9317 29.6304 44 35.6987 44C41.7671 44 46.6987 48.9317 46.6987 55Z" fill="url(#paint1_linear_2572_6457)" fill-opacity="0.55" shape-rendering="crispEdges"/>
<path d="M35.6987 44.5C41.4909 44.5 46.1987 49.2078 46.1987 55C46.1987 56.1953 45.9979 57.3497 45.6313 58.416L45.4644 58.8672C44.2569 61.9121 41.6655 64.2579 38.4634 65.1328L38.4604 65.1338C37.5906 65.3773 36.6645 65.5 35.6987 65.5C34.7329 65.5 33.8068 65.3773 32.937 65.1338L32.9341 65.1328L32.6353 65.0459C29.6698 64.1401 27.2625 61.9635 26.0503 59.1504L25.9331 58.8672C25.4611 57.6785 25.1987 56.3659 25.1987 55C25.1987 49.2078 29.9065 44.5 35.6987 44.5Z" stroke="white" stroke-opacity="0.6" shape-rendering="crispEdges"/>
</g>
<g filter="url(#filter2_dii_2572_6457)">
<path d="M77.6987 26.6187C77.6987 29.2837 77.1862 31.8462 76.2637 34.1695C73.9062 40.1145 68.8496 44.6928 62.5971 46.4011C60.8887 46.8795 59.0779 47.1187 57.1987 47.1187C55.3196 47.1187 53.5087 46.8795 51.8004 46.4011C45.5479 44.6928 40.4912 40.1145 38.1337 34.1695C37.2112 31.8462 36.6987 29.2837 36.6987 26.6187C36.6987 15.3095 45.8896 6.11865 57.1987 6.11865C68.5079 6.11865 77.6987 15.3095 77.6987 26.6187Z" fill="url(#paint2_linear_2572_6457)" fill-opacity="0.55" shape-rendering="crispEdges"/>
<path d="M57.1987 6.61865C68.2318 6.61865 77.1987 15.5856 77.1987 26.6187C77.1987 29.0569 76.7594 31.4064 75.9634 33.5571L75.7993 33.9849C73.4994 39.7848 68.5649 44.2519 62.4653 45.9185L62.4624 45.9194C60.8009 46.3847 59.0355 46.6187 57.1987 46.6187C55.362 46.6187 53.5966 46.3847 51.9351 45.9194L51.9321 45.9185C45.8325 44.2519 40.8981 39.7848 38.5981 33.9849C37.6987 31.7195 37.1987 29.2195 37.1987 26.6187C37.1987 15.5856 46.1657 6.61865 57.1987 6.61865Z" stroke="white" stroke-opacity="0.6" shape-rendering="crispEdges"/>
</g>
<g filter="url(#filter3_dii_2572_6457)">
<path d="M78.6987 39.1187C78.6987 39.8987 78.5487 40.6487 78.2787 41.3287C77.5887 43.0687 76.1087 44.4087 74.2787 44.9087C73.7787 45.0487 73.2487 45.1187 72.6987 45.1187C72.1487 45.1187 71.6187 45.0487 71.1187 44.9087C69.2887 44.4087 67.8087 43.0687 67.1187 41.3287C66.8487 40.6487 66.6987 39.8987 66.6987 39.1187C66.6987 35.8087 69.3887 33.1187 72.6987 33.1187C76.0087 33.1187 78.6987 35.8087 78.6987 39.1187Z" fill="url(#paint3_linear_2572_6457)" fill-opacity="0.55" shape-rendering="crispEdges"/>
<path d="M72.6987 33.6187C75.7326 33.6187 78.1987 36.0848 78.1987 39.1187C78.1987 39.745 78.0936 40.3497 77.9019 40.9077L77.814 41.144C77.1815 42.739 75.8241 43.968 74.147 44.4263L74.144 44.4272C73.6908 44.5541 73.2063 44.6187 72.6987 44.6187C72.1912 44.6187 71.7066 44.5541 71.2534 44.4272L71.2505 44.4263C69.6782 43.9967 68.3868 42.8899 67.7104 41.439L67.5835 41.144C67.3365 40.522 67.1987 39.8346 67.1987 39.1187C67.1987 36.0848 69.6649 33.6187 72.6987 33.6187Z" stroke="white" stroke-opacity="0.6" shape-rendering="crispEdges"/>
</g>
<g filter="url(#filter4_dii_2572_6457)">
<path d="M51.6987 69.9643C51.6987 74.4007 55.2821 78 59.6987 78H76.5876C80.5154 78 83.6987 74.8025 83.6987 70.8571C83.6987 68.5371 82.5988 66.4743 80.8928 65.1708C80.2164 64.6539 79.9042 63.7322 80.0563 62.8946C80.1133 62.5809 80.1432 62.2579 80.1432 61.9286C80.1432 58.971 77.7543 56.5714 74.8098 56.5714C74.3843 56.5714 73.9713 56.6216 73.5758 56.716C72.7423 56.915 71.7965 56.6553 71.2589 55.988C69.7918 54.1666 67.5474 53 65.0321 53C60.6154 53 57.0321 56.5993 57.0321 61.0357C57.0321 61.0536 57.0321 61.0715 57.0323 61.0893C57.0373 61.8193 56.6238 62.5051 55.9785 62.8463C53.4345 64.1913 51.6987 66.8758 51.6987 69.9643Z" fill="url(#paint4_linear_2572_6457)" fill-opacity="0.55" shape-rendering="crispEdges"/>
<path d="M65.0317 53.5C67.3887 53.5 69.4929 54.5926 70.8696 56.3018C71.5452 57.1403 72.6985 57.4393 73.6919 57.2021C74.0498 57.1167 74.424 57.0713 74.8101 57.0713C77.4762 57.0714 79.6431 59.2452 79.6431 61.9287C79.6431 62.2277 79.6156 62.5212 79.564 62.8057C79.3819 63.8087 79.749 64.9262 80.5894 65.5684C82.176 66.7809 83.1987 68.699 83.1987 70.8574C83.1986 74.5286 80.2368 77.5 76.5874 77.5H59.6987C55.5603 77.5 52.1987 74.1262 52.1987 69.9639C52.1989 67.0672 53.8267 64.5494 56.2124 63.2881C57.021 62.8604 57.5391 62.004 57.5327 61.0859C57.5326 61.0694 57.5317 61.0527 57.5317 61.0361C57.5317 56.8739 60.8935 53.5002 65.0317 53.5Z" stroke="white" stroke-opacity="0.6" shape-rendering="crispEdges"/>
</g>
<g filter="url(#filter5_dii_2572_6457)">
<path d="M43.7022 22.3649C43.7003 22.3649 43.6987 22.3663 43.6987 22.3682C43.7025 26.7989 51.1625 34.6611 51.4754 34.974C51.7851 35.2837 52.2871 35.2837 52.5967 34.974C52.9063 34.661 60.3734 26.7984 60.3734 22.3649C60.3734 17.9313 56.6416 14 52.0395 14C47.4386 14 43.7075 17.7437 43.7056 22.3614C43.7056 22.3633 43.7041 22.3649 43.7022 22.3649Z" fill="url(#paint5_linear_2572_6457)" fill-opacity="0.55" shape-rendering="crispEdges"/>
<path d="M52.0396 14.5C56.3566 14.5 59.8735 18.1989 59.8735 22.3652C59.8734 23.3519 59.4512 24.5874 58.7573 25.9316C58.0697 27.2637 57.1438 28.6481 56.1997 29.916C54.3193 32.4413 52.3996 34.4608 52.2427 34.6201C52.1283 34.7344 51.943 34.7345 51.8286 34.6201C51.6835 34.4749 49.7588 32.4507 47.8726 29.917C46.9289 28.6494 46.0035 27.2653 45.3159 25.9336C44.6337 24.6122 44.2145 23.3958 44.1997 22.418C44.2018 22.3993 44.2056 22.3805 44.2056 22.3613C44.2075 18.0181 47.7166 14.5 52.0396 14.5Z" stroke="white" stroke-opacity="0.6" shape-rendering="crispEdges"/>
</g>
<rect x="45.626" y="15.9126" width="12.9208" height="9.22917" rx="4.61458" fill="#103F6B"/>
<ellipse cx="49.5008" cy="20.4352" rx="0.645834" ry="1.29167" fill="#EE9851"/>
<path d="M55.1578 20.5741C55.3034 20.626 55.3769 20.7932 55.322 20.9475C55.267 21.1019 55.1043 21.1849 54.9587 21.133C54.6941 21.0388 54.4404 20.9994 54.1982 21.1503C53.9487 21.3056 53.6559 21.6396 53.5003 21.3901C53.3387 21.1307 53.6697 20.8399 53.9208 20.6656C54.2612 20.4292 54.6551 20.3951 55.1578 20.5741Z" fill="#EE9851"/>
<path d="M52.0867 22.6962C51.9563 22.6962 51.7655 22.5865 51.5808 22.4501C51.3988 22.3157 51.504 22.0498 51.7302 22.0498H52.4432C52.6694 22.0498 52.7746 22.3157 52.5926 22.4501C52.4079 22.5865 52.2172 22.6962 52.0867 22.6962Z" fill="#F2B27D"/>
<path d="M53.9322 24.6803V25.1418H50.2406V24.6803H53.9322ZM58.0854 20.5272C58.0854 18.2335 56.2259 16.3741 53.9322 16.3741H50.2406C47.9469 16.3741 46.0874 18.2335 46.0874 20.5272C46.0874 22.8209 47.9469 24.6803 50.2406 24.6803V25.1418C47.692 25.1418 45.626 23.0757 45.626 20.5272C45.626 17.9786 47.692 15.9126 50.2406 15.9126H53.9322L54.1693 15.9189C56.6077 16.0423 58.5468 18.0581 58.5468 20.5272C58.5468 22.9962 56.6077 25.0121 54.1693 25.1355L53.9322 25.1418V24.6803C56.2259 24.6803 58.0854 22.8209 58.0854 20.5272Z" fill="#676DAF"/>
<g filter="url(#filter6_d_2572_6457)">
<path d="M63.7006 10.7799C63.6996 10.7799 63.6987 10.7807 63.6987 10.7817C63.7007 13.2506 67.7272 17.6319 67.8961 17.8062C68.0617 17.9771 68.3358 17.9771 68.5013 17.8062C68.6684 17.6318 72.6987 13.2504 72.6987 10.7799C72.6987 8.30936 70.6845 6.11865 68.2006 6.11865C65.7173 6.11865 63.7034 8.20485 63.7024 10.778C63.7024 10.779 63.7016 10.7799 63.7006 10.7799ZM69.6746 10.6764C69.6746 11.512 69.0026 12.2059 68.1969 12.2059C67.3912 12.2059 66.7192 11.5101 66.7192 10.6764C66.7192 9.84266 67.3912 9.14692 68.1969 9.14692C69.0026 9.14692 69.6746 9.84266 69.6746 10.6764Z" fill="#D29A76"/>
</g>
<path opacity="0.8" d="M35.6902 54.673C35.6788 54.6748 35.58 54.6703 35.5108 54.9921C35.4397 55.3222 35.4452 55.8496 35.5636 56.5934C35.6855 57.3592 35.8137 57.8894 35.9754 58.2067C36.0531 58.3589 36.1185 58.4204 36.1551 58.444C36.1783 58.4589 36.2113 58.4741 36.2916 58.4615C36.3719 58.4488 36.3982 58.4238 36.4156 58.4025C36.443 58.3689 36.4863 58.2905 36.5131 58.1215C36.5687 57.7698 36.5267 57.2261 36.4054 56.4597C36.2876 55.7156 36.129 55.2123 35.9592 54.9207C35.7949 54.6386 35.703 54.6707 35.6902 54.673Z" stroke="#EACBB8" stroke-width="1.02434"/>
<path opacity="0.8" d="M28.695 55.7841C28.6813 55.7859 28.5843 55.786 28.5159 56.1041C28.4448 56.4343 28.4493 56.9615 28.5675 57.7047L28.5678 57.7057C28.6889 58.4709 28.8174 59.0001 28.9791 59.3171C29.0569 59.4695 29.1223 59.5317 29.159 59.5553C29.1765 59.5666 29.1998 59.5772 29.2441 59.5769L29.2965 59.5726C29.3758 59.5596 29.4028 59.5351 29.4205 59.5136C29.4482 59.4797 29.4916 59.3997 29.5184 59.2305C29.5739 58.8788 29.532 58.3359 29.4102 57.5707C29.292 56.8275 29.133 56.3243 28.9631 56.032C28.7973 55.7468 28.7053 55.7824 28.695 55.7841Z" stroke="#EACBB8" stroke-width="1.02434"/>
<g opacity="0.8">
<mask id="path-21-inside-1_2572_6457" fill="white">
<path d="M33.9702 53.9384C34.0131 53.9274 34.0535 53.9061 34.0868 53.8719L35.0104 52.9801C35.1144 52.8784 35.1173 52.711 35.0173 52.6066C34.9157 52.5026 34.7483 52.4997 34.6439 52.5996L33.7203 53.4914C33.6164 53.5931 33.6134 53.7605 33.7134 53.8649C33.7809 53.9355 33.8804 53.9595 33.968 53.9371L33.9702 53.9384Z"/>
</mask>
<path d="M33.9702 53.9384C34.0131 53.9274 34.0535 53.9061 34.0868 53.8719L35.0104 52.9801C35.1144 52.8784 35.1173 52.711 35.0173 52.6066C34.9157 52.5026 34.7483 52.4997 34.6439 52.5996L33.7203 53.4914C33.6164 53.5931 33.6134 53.7605 33.7134 53.8649C33.7809 53.9355 33.8804 53.9595 33.968 53.9371L33.9702 53.9384Z" fill="#676DAF"/>
<path d="M33.9702 53.9384L34.2241 54.9307L33.8128 55.036L33.4477 54.8194L33.9702 53.9384ZM34.0868 53.8719L33.354 53.1562L33.3645 53.1455L33.3753 53.135L34.0868 53.8719ZM35.0104 52.9801L35.7265 53.7125L35.7219 53.7169L35.0104 52.9801ZM35.0173 52.6066L35.7498 51.8904L35.7573 51.8983L35.0173 52.6066ZM34.6439 52.5996L33.9323 51.8628L33.9355 51.8597L34.6439 52.5996ZM33.7203 53.4914L33.0042 52.759L33.0088 52.7546L33.7203 53.4914ZM33.7134 53.8649L34.4533 53.1566L34.4538 53.1571L33.7134 53.8649ZM33.968 53.9371L33.7141 52.9447L34.1254 52.8395L34.4905 53.056L33.968 53.9371ZM33.9702 53.9384L33.7163 52.946C33.597 52.9765 33.4654 53.0421 33.354 53.1562L34.0868 53.8719L34.8197 54.5875C34.6415 54.77 34.4293 54.8782 34.2241 54.9307L33.9702 53.9384ZM34.0868 53.8719L33.3753 53.135L34.2988 52.2432L35.0104 52.9801L35.7219 53.7169L34.7984 54.6087L34.0868 53.8719ZM35.0104 52.9801L34.2942 52.2477C33.9992 52.5361 33.9867 53.0112 34.2774 53.3149L35.0173 52.6066L35.7573 51.8983C36.2479 52.4108 36.2295 53.2207 35.7265 53.7125L35.0104 52.9801ZM35.0173 52.6066L34.2849 53.3227C34.5734 53.6177 35.0485 53.6303 35.3522 53.3396L34.6439 52.5996L33.9355 51.8597C34.4481 51.369 35.258 51.3875 35.7497 51.8905L35.0173 52.6066ZM34.6439 52.5996L35.3554 53.3365L34.4319 54.2283L33.7203 53.4914L33.0088 52.7546L33.9323 51.8628L34.6439 52.5996ZM33.7203 53.4914L34.4365 54.2238C34.7315 53.9354 34.744 53.4603 34.4533 53.1566L33.7134 53.8649L32.9734 54.5732C32.4828 54.0607 32.5012 53.2508 33.0042 52.759L33.7203 53.4914ZM33.7134 53.8649L34.4538 53.1571C34.2508 52.9448 33.9638 52.8808 33.7141 52.9447L33.968 53.9371L34.2219 54.9294C33.7969 55.0382 33.3109 54.9263 32.9729 54.5727L33.7134 53.8649ZM33.968 53.9371L34.4905 53.056L34.4927 53.0573L33.9702 53.9384L33.4477 54.8194L33.4455 54.8181L33.968 53.9371Z" fill="#EACBB8" mask="url(#path-21-inside-1_2572_6457)"/>
</g>
<path d="M32.8697 59.6434C32.5815 59.6893 32.3269 59.7735 32.1672 59.8645C32.1528 59.8727 32.1413 59.8821 32.1302 59.8891C32.2238 60.0594 32.3333 60.1543 32.4386 60.2084C32.584 60.2829 32.7688 60.3069 32.9774 60.2772C33.1901 60.2466 33.3593 60.1674 33.471 60.0551C33.5528 59.9727 33.6276 59.8482 33.6565 59.6498C33.6418 59.6459 33.6253 59.6397 33.6055 59.6356C33.4257 59.5987 33.1578 59.5976 32.8697 59.6434Z" fill="#676DAF" stroke="#EACBB8" stroke-width="1.02434"/>
<g opacity="0.8" filter="url(#filter7_d_2572_6457)">
<mask id="path-24-inside-2_2572_6457" fill="white">
<path d="M33.2602 60.8596C33.9078 60.6939 34.2917 60.1926 34.2969 59.4841C34.2968 59.4783 34.2965 59.4713 34.2951 59.4659C34.2218 59.0055 33.4763 58.9122 32.7705 59.024C32.0646 59.1357 31.3848 59.456 31.4581 59.9163C31.4599 59.9231 31.4619 59.9311 31.4636 59.9379C31.7319 60.6554 32.3149 61.0054 33.0663 60.8978C33.1326 60.888 33.1983 60.8755 33.2602 60.8596ZM34.0671 59.4941C34.054 60.4241 33.3412 60.6266 33.034 60.6708C32.6632 60.724 31.996 60.6896 31.683 59.8703C31.6594 59.6267 32.1467 59.3557 32.8058 59.2516C33.1297 59.2003 33.4493 59.1989 33.6838 59.2464C33.814 59.2734 34.0335 59.3406 34.0657 59.4944L34.0671 59.4941Z"/>
</mask>
<path d="M33.2602 60.8596C33.9078 60.6939 34.2917 60.1926 34.2969 59.4841C34.2968 59.4783 34.2965 59.4713 34.2951 59.4659C34.2218 59.0055 33.4763 58.9122 32.7705 59.024C32.0646 59.1357 31.3848 59.456 31.4581 59.9163C31.4599 59.9231 31.4619 59.9311 31.4636 59.9379C31.7319 60.6554 32.3149 61.0054 33.0663 60.8978C33.1326 60.888 33.1983 60.8755 33.2602 60.8596ZM34.0671 59.4941C34.054 60.4241 33.3412 60.6266 33.034 60.6708C32.6632 60.724 31.996 60.6896 31.683 59.8703C31.6594 59.6267 32.1467 59.3557 32.8058 59.2516C33.1297 59.2003 33.4493 59.1989 33.6838 59.2464C33.814 59.2734 34.0335 59.3406 34.0657 59.4944L34.0671 59.4941Z" fill="#676DAF"/>
<path d="M34.2969 59.4841L35.3213 59.4784L35.3212 59.4916L34.2969 59.4841ZM34.2951 59.4659L33.3027 59.7198L33.291 59.6738L33.2835 59.627L34.2951 59.4659ZM31.4581 59.9163L30.4658 60.1702L30.454 60.1243L30.4465 60.0774L31.4581 59.9163ZM31.4636 59.9379L30.5042 60.2966L30.4849 60.245L30.4713 60.1918L31.4636 59.9379ZM33.0663 60.8978L33.216 61.9111L33.2115 61.9118L33.0663 60.8978ZM34.0671 59.4941L33.8131 58.5017L35.1101 58.1699L35.0913 59.5085L34.0671 59.4941ZM33.034 60.6708L33.1798 61.6847L33.1797 61.6847L33.034 60.6708ZM31.683 59.8703L30.7261 60.2357L30.6768 60.1066L30.6635 59.969L31.683 59.8703ZM32.8058 59.2516L32.9661 60.2633L32.9655 60.2634L32.8058 59.2516ZM33.6838 59.2464L33.8875 58.2426L33.8911 58.2433L33.6838 59.2464ZM34.0657 59.4944L34.3196 60.4868L33.2824 60.7522L33.0631 59.7042L34.0657 59.4944ZM33.2602 60.8596L33.0063 59.8672C33.1305 59.8355 33.1798 59.7875 33.2027 59.7572C33.2274 59.7245 33.2713 59.6452 33.2726 59.4766L34.2969 59.4841L35.3212 59.4916C35.3172 60.0315 35.1666 60.5571 34.8362 60.9936C34.504 61.4326 34.0375 61.7181 33.5141 61.852L33.2602 60.8596ZM34.2969 59.4841L33.2725 59.4897C33.2726 59.5052 33.2732 59.5305 33.2759 59.5621C33.2782 59.5894 33.2842 59.6474 33.3027 59.7198L34.2951 59.4659L35.2875 59.212C35.3216 59.3455 35.3211 59.4579 35.3212 59.4784L34.2969 59.4841ZM34.2951 59.4659L33.2835 59.627C33.2957 59.7036 33.3239 59.7806 33.367 59.8501C33.409 59.9178 33.456 59.9638 33.492 59.9921C33.5564 60.0427 33.5883 60.04 33.5349 60.0274C33.4881 60.0164 33.408 60.0056 33.2948 60.0055C33.1842 60.0053 33.0595 60.0153 32.9306 60.0357L32.7705 59.024L32.6103 58.0122C33.0408 57.9441 33.5475 57.9255 34.0051 58.0334C34.416 58.1303 35.1692 58.4416 35.3067 59.3048L34.2951 59.4659ZM32.7705 59.024L32.9306 60.0357C32.802 60.0561 32.6806 60.0851 32.5757 60.1194C32.4683 60.1545 32.3956 60.1895 32.3547 60.2144C32.308 60.2429 32.3393 60.2355 32.3848 60.1673C32.4103 60.1291 32.4407 60.0708 32.4596 59.9934C32.479 59.9139 32.4819 59.8319 32.4697 59.7552L31.4581 59.9163L30.4465 60.0774C30.309 59.214 30.9286 58.6841 31.2895 58.4644C31.6913 58.2199 32.1792 58.0805 32.6103 58.0122L32.7705 59.024ZM31.4581 59.9163L32.4505 59.6624C32.4505 59.6624 32.4505 59.6624 32.4505 59.6625C32.4505 59.6625 32.4505 59.6625 32.4505 59.6625C32.4505 59.6625 32.4505 59.6625 32.4505 59.6625C32.4505 59.6625 32.4505 59.6626 32.4505 59.6626C32.4506 59.6626 32.4506 59.6626 32.4506 59.6626C32.4506 59.6626 32.4506 59.6626 32.4506 59.6627C32.4506 59.6627 32.4506 59.6627 32.4506 59.6627C32.4506 59.6627 32.4506 59.6627 32.4506 59.6627C32.4506 59.6627 32.4506 59.6628 32.4506 59.6628C32.4506 59.6628 32.4506 59.6628 32.4506 59.6628C32.4506 59.6628 32.4506 59.6628 32.4506 59.6629C32.4506 59.6629 32.4506 59.6629 32.4506 59.6629C32.4506 59.6629 32.4506 59.6629 32.4506 59.6629C32.4506 59.6629 32.4506 59.663 32.4506 59.663C32.4507 59.663 32.4507 59.663 32.4507 59.663C32.4507 59.663 32.4507 59.663 32.4507 59.663C32.4507 59.6631 32.4507 59.6631 32.4507 59.6631C32.4507 59.6631 32.4507 59.6631 32.4507 59.6631C32.4507 59.6631 32.4507 59.6632 32.4507 59.6632C32.4507 59.6632 32.4507 59.6632 32.4507 59.6632C32.4507 59.6632 32.4507 59.6632 32.4507 59.6632C32.4507 59.6633 32.4507 59.6633 32.4507 59.6633C32.4507 59.6633 32.4507 59.6633 32.4507 59.6633C32.4507 59.6633 32.4507 59.6634 32.4508 59.6634C32.4508 59.6634 32.4508 59.6634 32.4508 59.6634C32.4508 59.6634 32.4508 59.6634 32.4508 59.6634C32.4508 59.6635 32.4508 59.6635 32.4508 59.6635C32.4508 59.6635 32.4508 59.6635 32.4508 59.6635C32.4508 59.6635 32.4508 59.6636 32.4508 59.6636C32.4508 59.6636 32.4508 59.6636 32.4508 59.6636C32.4508 59.6636 32.4508 59.6636 32.4508 59.6637C32.4508 59.6637 32.4508 59.6637 32.4508 59.6637C32.4508 59.6637 32.4508 59.6637 32.4508 59.6637C32.4508 59.6637 32.4509 59.6638 32.4509 59.6638C32.4509 59.6638 32.4509 59.6638 32.4509 59.6638C32.4509 59.6638 32.4509 59.6638 32.4509 59.6639C32.4509 59.6639 32.4509 59.6639 32.4509 59.6639C32.4509 59.6639 32.4509 59.6639 32.4509 59.6639C32.4509 59.6639 32.4509 59.664 32.4509 59.664C32.4509 59.664 32.4509 59.664 32.4509 59.664C32.4509 59.664 32.4509 59.664 32.4509 59.6641C32.4509 59.6641 32.4509 59.6641 32.4509 59.6641C32.4509 59.6641 32.4509 59.6641 32.4509 59.6641C32.451 59.6642 32.451 59.6642 32.451 59.6642C32.451 59.6642 32.451 59.6642 32.451 59.6642C32.451 59.6642 32.451 59.6642 32.451 59.6643C32.451 59.6643 32.451 59.6643 32.451 59.6643C32.451 59.6643 32.451 59.6643 32.451 59.6643C32.451 59.6644 32.451 59.6644 32.451 59.6644C32.451 59.6644 32.451 59.6644 32.451 59.6644C32.451 59.6644 32.451 59.6644 32.451 59.6645C32.451 59.6645 32.451 59.6645 32.451 59.6645C32.451 59.6645 32.451 59.6645 32.4511 59.6645C32.4511 59.6646 32.4511 59.6646 32.4511 59.6646C32.4511 59.6646 32.4511 59.6646 32.4511 59.6646C32.4511 59.6646 32.4511 59.6647 32.4511 59.6647C32.4511 59.6647 32.4511 59.6647 32.4511 59.6647C32.4511 59.6647 32.4511 59.6647 32.4511 59.6648C32.4511 59.6648 32.4511 59.6648 32.4511 59.6648C32.4511 59.6648 32.4511 59.6648 32.4511 59.6648C32.4511 59.6648 32.4511 59.6649 32.4511 59.6649C32.4511 59.6649 32.4511 59.6649 32.4511 59.6649C32.4511 59.6649 32.4512 59.6649 32.4512 59.665C32.4512 59.665 32.4512 59.665 32.4512 59.665C32.4512 59.665 32.4512 59.665 32.4512 59.665C32.4512 59.6651 32.4512 59.6651 32.4512 59.6651C32.4512 59.6651 32.4512 59.6651 32.4512 59.6651C32.4512 59.6651 32.4512 59.6651 32.4512 59.6652C32.4512 59.6652 32.4512 59.6652 32.4512 59.6652C32.4512 59.6652 32.4512 59.6652 32.4512 59.6652C32.4512 59.6653 32.4512 59.6653 32.4512 59.6653C32.4512 59.6653 32.4512 59.6653 32.4513 59.6653C32.4513 59.6653 32.4513 59.6654 32.4513 59.6654C32.4513 59.6654 32.4513 59.6654 32.4513 59.6654C32.4513 59.6654 32.4513 59.6654 32.4513 59.6655C32.4513 59.6655 32.4513 59.6655 32.4513 59.6655C32.4513 59.6655 32.4513 59.6655 32.4513 59.6655C32.4513 59.6655 32.4513 59.6656 32.4513 59.6656C32.4513 59.6656 32.4513 59.6656 32.4513 59.6656C32.4513 59.6656 32.4513 59.6656 32.4513 59.6657C32.4513 59.6657 32.4513 59.6657 32.4513 59.6657C32.4514 59.6657 32.4514 59.6657 32.4514 59.6657C32.4514 59.6658 32.4514 59.6658 32.4514 59.6658C32.4514 59.6658 32.4514 59.6658 32.4514 59.6658C32.4514 59.6658 32.4514 59.6659 32.4514 59.6659C32.4514 59.6659 32.4514 59.6659 32.4514 59.6659C32.4514 59.6659 32.4514 59.6659 32.4514 59.6659C32.4514 59.666 32.4514 59.666 32.4514 59.666C32.4514 59.666 32.4514 59.666 32.4514 59.666C32.4514 59.666 32.4514 59.6661 32.4514 59.6661C32.4514 59.6661 32.4515 59.6661 32.4515 59.6661C32.4515 59.6661 32.4515 59.6661 32.4515 59.6662C32.4515 59.6662 32.4515 59.6662 32.4515 59.6662C32.4515 59.6662 32.4515 59.6662 32.4515 59.6662C32.4515 59.6663 32.4515 59.6663 32.4515 59.6663C32.4515 59.6663 32.4515 59.6663 32.4515 59.6663C32.4515 59.6663 32.4515 59.6664 32.4515 59.6664C32.4515 59.6664 32.4515 59.6664 32.4515 59.6664C32.4515 59.6664 32.4515 59.6664 32.4515 59.6665C32.4515 59.6665 32.4515 59.6665 32.4516 59.6665C32.4516 59.6665 32.4516 59.6665 32.4516 59.6665C32.4516 59.6665 32.4516 59.6666 32.4516 59.6666C32.4516 59.6666 32.4516 59.6666 32.4516 59.6666C32.4516 59.6666 32.4516 59.6666 32.4516 59.6667C32.4516 59.6667 32.4516 59.6667 32.4516 59.6667C32.4516 59.6667 32.4516 59.6667 32.4516 59.6667C32.4516 59.6668 32.4516 59.6668 32.4516 59.6668C32.4516 59.6668 32.4516 59.6668 32.4516 59.6668C32.4516 59.6668 32.4516 59.6669 32.4516 59.6669C32.4517 59.6669 32.4517 59.6669 32.4517 59.6669C32.4517 59.6669 32.4517 59.6669 32.4517 59.667C32.4517 59.667 32.4517 59.667 32.4517 59.667C32.4517 59.667 32.4517 59.667 32.4517 59.667C32.4517 59.6671 32.4517 59.6671 32.4517 59.6671C32.4517 59.6671 32.4517 59.6671 32.4517 59.6671C32.4517 59.6671 32.4517 59.6672 32.4517 59.6672C32.4517 59.6672 32.4517 59.6672 32.4517 59.6672C32.4517 59.6672 32.4517 59.6672 32.4517 59.6673C32.4517 59.6673 32.4518 59.6673 32.4518 59.6673C32.4518 59.6673 32.4518 59.6673 32.4518 59.6673C32.4518 59.6673 32.4518 59.6674 32.4518 59.6674C32.4518 59.6674 32.4518 59.6674 32.4518 59.6674C32.4518 59.6674 32.4518 59.6674 32.4518 59.6675C32.4518 59.6675 32.4518 59.6675 32.4518 59.6675C32.4518 59.6675 32.4518 59.6675 32.4518 59.6675C32.4518 59.6676 32.4518 59.6676 32.4518 59.6676C32.4518 59.6676 32.4518 59.6676 32.4518 59.6676C32.4518 59.6676 32.4518 59.6677 32.4519 59.6677C32.4519 59.6677 32.4519 59.6677 32.4519 59.6677C32.4519 59.6677 32.4519 59.6677 32.4519 59.6678C32.4519 59.6678 32.4519 59.6678 32.4519 59.6678C32.4519 59.6678 32.4519 59.6678 32.4519 59.6678C32.4519 59.6679 32.4519 59.6679 32.4519 59.6679C32.4519 59.6679 32.4519 59.6679 32.4519 59.6679C32.4519 59.6679 32.4519 59.668 32.4519 59.668C32.4519 59.668 32.4519 59.668 32.4519 59.668C32.4519 59.668 32.4519 59.668 32.452 59.6681C32.452 59.6681 32.452 59.6681 32.452 59.6681C32.452 59.6681 32.452 59.6681 32.452 59.6681C32.452 59.6682 32.452 59.6682 32.452 59.6682C32.452 59.6682 32.452 59.6682 32.452 59.6682C32.452 59.6682 32.452 59.6683 32.452 59.6683C32.452 59.6683 32.452 59.6683 32.452 59.6683C32.452 59.6683 32.452 59.6683 32.452 59.6684C32.452 59.6684 32.452 59.6684 32.452 59.6684C32.452 59.6684 32.452 59.6684 32.452 59.6684C32.4521 59.6685 32.4521 59.6685 32.4521 59.6685C32.4521 59.6685 32.4521 59.6685 32.4521 59.6685C32.4521 59.6685 32.4521 59.6686 32.4521 59.6686C32.4521 59.6686 32.4521 59.6686 32.4521 59.6686C32.4521 59.6686 32.4521 59.6686 32.4521 59.6687C32.4521 59.6687 32.4521 59.6687 32.4521 59.6687C32.4521 59.6687 32.4521 59.6687 32.4521 59.6687C32.4521 59.6688 32.4521 59.6688 32.4521 59.6688C32.4521 59.6688 32.4521 59.6688 32.4521 59.6688C32.4522 59.6688 32.4522 59.6689 32.4522 59.6689C32.4522 59.6689 32.4522 59.6689 32.4522 59.6689C32.4522 59.6689 32.4522 59.6689 32.4522 59.669C32.4522 59.669 32.4522 59.669 32.4522 59.669C32.4522 59.669 32.4522 59.669 32.4522 59.669C32.4522 59.6691 32.4522 59.6691 32.4522 59.6691C32.4522 59.6691 32.4522 59.6691 32.4522 59.6691C32.4522 59.6691 32.4522 59.6692 32.4522 59.6692C32.4522 59.6692 32.4522 59.6692 32.4522 59.6692C32.4522 59.6692 32.4523 59.6692 32.4523 59.6693C32.4523 59.6693 32.4523 59.6693 32.4523 59.6693C32.4523 59.6693 32.4523 59.6693 32.4523 59.6693C32.4523 59.6694 32.4523 59.6694 32.4523 59.6694C32.4523 59.6694 32.4523 59.6694 32.4523 59.6694C32.4523 59.6694 32.4523 59.6695 32.4523 59.6695C32.4523 59.6695 32.4523 59.6695 32.4523 59.6695C32.4523 59.6695 32.4523 59.6695 32.4523 59.6696C32.4523 59.6696 32.4523 59.6696 32.4523 59.6696C32.4523 59.6696 32.4524 59.6696 32.4524 59.6696C32.4524 59.6697 32.4524 59.6697 32.4524 59.6697C32.4524 59.6697 32.4524 59.6697 32.4524 59.6697C32.4524 59.6697 32.4524 59.6698 32.4524 59.6698C32.4524 59.6698 32.4524 59.6698 32.4524 59.6698C32.4524 59.6698 32.4524 59.6698 32.4524 59.6699C32.4524 59.6699 32.4524 59.6699 32.4524 59.6699C32.4524 59.6699 32.4524 59.6699 32.4524 59.6699C32.4524 59.67 32.4524 59.67 32.4524 59.67C32.4524 59.67 32.4525 59.67 32.4525 59.67C32.4525 59.67 32.4525 59.6701 32.4525 59.6701C32.4525 59.6701 32.4525 59.6701 32.4525 59.6701C32.4525 59.6701 32.4525 59.6701 32.4525 59.6702C32.4525 59.6702 32.4525 59.6702 32.4525 59.6702C32.4525 59.6702 32.4525 59.6702 32.4525 59.6702C32.4525 59.6703 32.4525 59.6703 32.4525 59.6703C32.4525 59.6703 32.4525 59.6703 32.4525 59.6703C32.4525 59.6703 32.4525 59.6704 32.4525 59.6704C32.4525 59.6704 32.4525 59.6704 32.4526 59.6704C32.4526 59.6704 32.4526 59.6704 32.4526 59.6705C32.4526 59.6705 32.4526 59.6705 32.4526 59.6705C32.4526 59.6705 32.4526 59.6705 32.4526 59.6705C32.4526 59.6706 32.4526 59.6706 32.4526 59.6706C32.4526 59.6706 32.4526 59.6706 32.4526 59.6706C32.4526 59.6706 32.4526 59.6707 32.4526 59.6707C32.4526 59.6707 32.4526 59.6707 32.4526 59.6707C32.4526 59.6707 32.4526 59.6707 32.4526 59.6708C32.4526 59.6708 32.4526 59.6708 32.4527 59.6708C32.4527 59.6708 32.4527 59.6708 32.4527 59.6708C32.4527 59.6709 32.4527 59.6709 32.4527 59.6709C32.4527 59.6709 32.4527 59.6709 32.4527 59.6709C32.4527 59.6709 32.4527 59.671 32.4527 59.671C32.4527 59.671 32.4527 59.671 32.4527 59.671C32.4527 59.671 32.4527 59.671 32.4527 59.6711C32.4527 59.6711 32.4527 59.6711 32.4527 59.6711C32.4527 59.6711 32.4527 59.6711 32.4527 59.6711C32.4527 59.6712 32.4527 59.6712 32.4528 59.6712C32.4528 59.6712 32.4528 59.6712 32.4528 59.6712C32.4528 59.6712 32.4528 59.6713 32.4528 59.6713C32.4528 59.6713 32.4528 59.6713 32.4528 59.6713C32.4528 59.6713 32.4528 59.6714 32.4528 59.6714C32.4528 59.6714 32.4528 59.6714 32.4528 59.6714C32.4528 59.6714 32.4528 59.6714 32.4528 59.6715C32.4528 59.6715 32.4528 59.6715 32.4528 59.6715C32.4528 59.6715 32.4528 59.6715 32.4528 59.6715C32.4528 59.6716 32.4528 59.6716 32.4529 59.6716C32.4529 59.6716 32.4529 59.6716 32.4529 59.6716C32.4529 59.6716 32.4529 59.6717 32.4529 59.6717C32.4529 59.6717 32.4529 59.6717 32.4529 59.6717C32.4529 59.6717 32.4529 59.6717 32.4529 59.6718C32.4529 59.6718 32.4529 59.6718 32.4529 59.6718C32.4529 59.6718 32.4529 59.6718 32.4529 59.6718C32.4529 59.6719 32.4529 59.6719 32.4529 59.6719C32.4529 59.6719 32.4529 59.6719 32.4529 59.6719C32.4529 59.6719 32.4529 59.672 32.453 59.672C32.453 59.672 32.453 59.672 32.453 59.672C32.453 59.672 32.453 59.672 32.453 59.6721C32.453 59.6721 32.453 59.6721 32.453 59.6721C32.453 59.6721 32.453 59.6721 32.453 59.6721C32.453 59.6722 32.453 59.6722 32.453 59.6722C32.453 59.6722 32.453 59.6722 32.453 59.6722C32.453 59.6722 32.453 59.6723 32.453 59.6723C32.453 59.6723 32.453 59.6723 32.453 59.6723C32.453 59.6723 32.453 59.6723 32.4531 59.6724C32.4531 59.6724 32.4531 59.6724 32.4531 59.6724C32.4531 59.6724 32.4531 59.6724 32.4531 59.6724C32.4531 59.6725 32.4531 59.6725 32.4531 59.6725C32.4531 59.6725 32.4531 59.6725 32.4531 59.6725C32.4531 59.6725 32.4531 59.6726 32.4531 59.6726C32.4531 59.6726 32.4531 59.6726 32.4531 59.6726C32.4531 59.6726 32.4531 59.6727 32.4531 59.6727C32.4531 59.6727 32.4531 59.6727 32.4531 59.6727C32.4531 59.6727 32.4531 59.6727 32.4532 59.6728C32.4532 59.6728 32.4532 59.6728 32.4532 59.6728C32.4532 59.6728 32.4532 59.6728 32.4532 59.6728C32.4532 59.6729 32.4532 59.6729 32.4532 59.6729C32.4532 59.6729 32.4532 59.6729 32.4532 59.6729C32.4532 59.6729 32.4532 59.673 32.4532 59.673C32.4532 59.673 32.4532 59.673 32.4532 59.673C32.4532 59.673 32.4532 59.673 32.4532 59.6731C32.4532 59.6731 32.4532 59.6731 32.4532 59.6731C32.4532 59.6731 32.4532 59.6731 32.4533 59.6731C32.4533 59.6732 32.4533 59.6732 32.4533 59.6732C32.4533 59.6732 32.4533 59.6732 32.4533 59.6732C32.4533 59.6732 32.4533 59.6733 32.4533 59.6733C32.4533 59.6733 32.4533 59.6733 32.4533 59.6733C32.4533 59.6733 32.4533 59.6733 32.4533 59.6734C32.4533 59.6734 32.4533 59.6734 32.4533 59.6734C32.4533 59.6734 32.4533 59.6734 32.4533 59.6734C32.4533 59.6735 32.4533 59.6735 32.4533 59.6735C32.4533 59.6735 32.4533 59.6735 32.4534 59.6735C32.4534 59.6735 32.4534 59.6736 32.4534 59.6736C32.4534 59.6736 32.4534 59.6736 32.4534 59.6736C32.4534 59.6736 32.4534 59.6736 32.4534 59.6737C32.4534 59.6737 32.4534 59.6737 32.4534 59.6737C32.4534 59.6737 32.4534 59.6737 32.4534 59.6737C32.4534 59.6738 32.4534 59.6738 32.4534 59.6738C32.4534 59.6738 32.4534 59.6738 32.4534 59.6738C32.4534 59.6739 32.4534 59.6739 32.4534 59.6739C32.4534 59.6739 32.4534 59.6739 32.4535 59.6739C32.4535 59.6739 32.4535 59.674 32.4535 59.674C32.4535 59.674 32.4535 59.674 32.4535 59.674C32.4535 59.674 32.4535 59.674 32.4535 59.6741C32.4535 59.6741 32.4535 59.6741 32.4535 59.6741C32.4535 59.6741 32.4535 59.6741 32.4535 59.6741C32.4535 59.6742 32.4535 59.6742 32.4535 59.6742C32.4535 59.6742 32.4535 59.6742 32.4535 59.6742C32.4535 59.6742 32.4535 59.6743 32.4535 59.6743C32.4535 59.6743 32.4535 59.6743 32.4536 59.6743C32.4536 59.6743 32.4536 59.6743 32.4536 59.6744C32.4536 59.6744 32.4536 59.6744 32.4536 59.6744C32.4536 59.6744 32.4536 59.6744 32.4536 59.6744C32.4536 59.6745 32.4536 59.6745 32.4536 59.6745C32.4536 59.6745 32.4536 59.6745 32.4536 59.6745C32.4536 59.6745 32.4536 59.6746 32.4536 59.6746C32.4536 59.6746 32.4536 59.6746 32.4536 59.6746C32.4536 59.6746 32.4536 59.6746 32.4536 59.6747C32.4536 59.6747 32.4536 59.6747 32.4537 59.6747C32.4537 59.6747 32.4537 59.6747 32.4537 59.6747C32.4537 59.6748 32.4537 59.6748 32.4537 59.6748C32.4537 59.6748 32.4537 59.6748 32.4537 59.6748C32.4537 59.6748 32.4537 59.6749 32.4537 59.6749C32.4537 59.6749 32.4537 59.6749 32.4537 59.6749C32.4537 59.6749 32.4537 59.6749 32.4537 59.675C32.4537 59.675 32.4537 59.675 32.4537 59.675C32.4537 59.675 32.4537 59.675 32.4537 59.675C32.4537 59.6751 32.4537 59.6751 32.4538 59.6751C32.4538 59.6751 32.4538 59.6751 32.4538 59.6751C32.4538 59.6752 32.4538 59.6752 32.4538 59.6752C32.4538 59.6752 32.4538 59.6752 32.4538 59.6752C32.4538 59.6752 32.4538 59.6753 32.4538 59.6753C32.4538 59.6753 32.4538 59.6753 32.4538 59.6753C32.4538 59.6753 32.4538 59.6753 32.4538 59.6754C32.4538 59.6754 32.4538 59.6754 32.4538 59.6754C32.4538 59.6754 32.4538 59.6754 32.4538 59.6754C32.4538 59.6755 32.4538 59.6755 32.4539 59.6755C32.4539 59.6755 32.4539 59.6755 32.4539 59.6755C32.4539 59.6755 32.4539 59.6756 32.4539 59.6756C32.4539 59.6756 32.4539 59.6756 32.4539 59.6756C32.4539 59.6756 32.4539 59.6756 32.4539 59.6757C32.4539 59.6757 32.4539 59.6757 32.4539 59.6757C32.4539 59.6757 32.4539 59.6757 32.4539 59.6757C32.4539 59.6758 32.4539 59.6758 32.4539 59.6758C32.4539 59.6758 32.4539 59.6758 32.4539 59.6758C32.4539 59.6758 32.4539 59.6759 32.4539 59.6759C32.454 59.6759 32.454 59.6759 32.454 59.6759C32.454 59.6759 32.454 59.6759 32.454 59.676C32.454 59.676 32.454 59.676 32.454 59.676C32.454 59.676 32.454 59.676 32.454 59.676C32.454 59.6761 32.454 59.6761 32.454 59.6761C32.454 59.6761 32.454 59.6761 32.454 59.6761C32.454 59.6761 32.454 59.6762 32.454 59.6762C32.454 59.6762 32.454 59.6762 32.454 59.6762C32.454 59.6762 32.454 59.6762 32.454 59.6763C32.4541 59.6763 32.4541 59.6763 32.4541 59.6763C32.4541 59.6763 32.4541 59.6763 32.4541 59.6763C32.4541 59.6764 32.4541 59.6764 32.4541 59.6764C32.4541 59.6764 32.4541 59.6764 32.4541 59.6764C32.4541 59.6764 32.4541 59.6765 32.4541 59.6765C32.4541 59.6765 32.4541 59.6765 32.4541 59.6765C32.4541 59.6765 32.4541 59.6765 32.4541 59.6766C32.4541 59.6766 32.4541 59.6766 32.4541 59.6766C32.4541 59.6766 32.4541 59.6766 32.4541 59.6766C32.4542 59.6767 32.4542 59.6767 32.4542 59.6767C32.4542 59.6767 32.4542 59.6767 32.4542 59.6767C32.4542 59.6767 32.4542 59.6768 32.4542 59.6768C32.4542 59.6768 32.4542 59.6768 32.4542 59.6768C32.4542 59.6768 32.4542 59.6768 32.4542 59.6769C32.4542 59.6769 32.4542 59.6769 32.4542 59.6769C32.4542 59.6769 32.4542 59.6769 32.4542 59.6769C32.4542 59.677 32.4542 59.677 32.4542 59.677C32.4542 59.677 32.4542 59.677 32.4542 59.677C32.4543 59.677 32.4543 59.6771 32.4543 59.6771C32.4543 59.6771 32.4543 59.6771 32.4543 59.6771C32.4543 59.6771 32.4543 59.6771 32.4543 59.6772C32.4543 59.6772 32.4543 59.6772 32.4543 59.6772C32.4543 59.6772 32.4543 59.6772 32.4543 59.6772C32.4543 59.6773 32.4543 59.6773 32.4543 59.6773C32.4543 59.6773 32.4543 59.6773 32.4543 59.6773C32.4543 59.6773 32.4543 59.6774 32.4543 59.6774C32.4543 59.6774 32.4543 59.6774 32.4543 59.6774C32.4543 59.6774 32.4544 59.6774 32.4544 59.6775C32.4544 59.6775 32.4544 59.6775 32.4544 59.6775C32.4544 59.6775 32.4544 59.6775 32.4544 59.6775C32.4544 59.6776 32.4544 59.6776 32.4544 59.6776C32.4544 59.6776 32.4544 59.6776 32.4544 59.6776C32.4544 59.6776 32.4544 59.6777 32.4544 59.6777C32.4544 59.6777 32.4544 59.6777 32.4544 59.6777C32.4544 59.6777 32.4544 59.6777 32.4544 59.6778C32.4544 59.6778 32.4544 59.6778 32.4544 59.6778C32.4544 59.6778 32.4545 59.6778 32.4545 59.6778C32.4545 59.6779 32.4545 59.6779 32.4545 59.6779C32.4545 59.6779 32.4545 59.6779 32.4545 59.6779C32.4545 59.6779 32.4545 59.678 32.4545 59.678C32.4545 59.678 32.4545 59.678 32.4545 59.678C32.4545 59.678 32.4545 59.678 32.4545 59.6781C32.4545 59.6781 32.4545 59.6781 32.4545 59.6781C32.4545 59.6781 32.4545 59.6781 32.4545 59.6781C32.4545 59.6782 32.4545 59.6782 32.4545 59.6782C32.4545 59.6782 32.4545 59.6782 32.4546 59.6782C32.4546 59.6782 32.4546 59.6783 32.4546 59.6783C32.4546 59.6783 32.4546 59.6783 32.4546 59.6783C32.4546 59.6783 32.4546 59.6783 32.4546 59.6784C32.4546 59.6784 32.4546 59.6784 32.4546 59.6784C32.4546 59.6784 32.4546 59.6784 32.4546 59.6784C32.4546 59.6785 32.4546 59.6785 32.4546 59.6785C32.4546 59.6785 32.4546 59.6785 32.4546 59.6785C32.4546 59.6785 32.4546 59.6786 32.4546 59.6786C32.4546 59.6786 32.4546 59.6786 32.4547 59.6786C32.4547 59.6786 32.4547 59.6786 32.4547 59.6787C32.4547 59.6787 32.4547 59.6787 32.4547 59.6787C32.4547 59.6787 32.4547 59.6787 32.4547 59.6787C32.4547 59.6788 32.4547 59.6788 32.4547 59.6788C32.4547 59.6788 32.4547 59.6788 32.4547 59.6788C32.4547 59.6788 32.4547 59.6789 32.4547 59.6789C32.4547 59.6789 32.4547 59.6789 32.4547 59.6789C32.4547 59.6789 32.4547 59.6789 32.4547 59.679C32.4547 59.679 32.4547 59.679 32.4547 59.679C32.4548 59.679 32.4548 59.679 32.4548 59.679C32.4548 59.6791 32.4548 59.6791 32.4548 59.6791C32.4548 59.6791 32.4548 59.6791 32.4548 59.6791C32.4548 59.6791 32.4548 59.6791 32.4548 59.6792C32.4548 59.6792 32.4548 59.6792 32.4548 59.6792C32.4548 59.6792 32.4548 59.6792 32.4548 59.6792C32.4548 59.6793 32.4548 59.6793 32.4548 59.6793C32.4548 59.6793 32.4548 59.6793 32.4548 59.6793C32.4548 59.6793 32.4548 59.6794 32.4548 59.6794C32.4548 59.6794 32.4549 59.6794 32.4549 59.6794C32.4549 59.6794 32.4549 59.6794 32.4549 59.6795C32.4549 59.6795 32.4549 59.6795 32.4549 59.6795C32.4549 59.6795 32.4549 59.6795 32.4549 59.6795C32.4549 59.6796 32.4549 59.6796 32.4549 59.6796C32.4549 59.6796 32.4549 59.6796 32.4549 59.6796C32.4549 59.6796 32.4549 59.6797 32.4549 59.6797C32.4549 59.6797 32.4549 59.6797 32.4549 59.6797C32.4549 59.6797 32.4549 59.6797 32.4549 59.6798C32.4549 59.6798 32.455 59.6798 32.455 59.6798C32.455 59.6798 32.455 59.6798 32.455 59.6798C32.455 59.6799 32.455 59.6799 32.455 59.6799C32.455 59.6799 32.455 59.6799 32.455 59.6799C32.455 59.6799 32.455 59.6799 32.455 59.68C32.455 59.68 32.455 59.68 32.455 59.68C32.455 59.68 32.455 59.68 32.455 59.68C32.455 59.6801 32.455 59.6801 32.455 59.6801C32.455 59.6801 32.455 59.6801 32.455 59.6801C32.455 59.6801 32.455 59.6802 32.4551 59.6802C32.4551 59.6802 32.4551 59.6802 32.4551 59.6802C32.4551 59.6802 32.4551 59.6802 32.4551 59.6803C32.4551 59.6803 32.4551 59.6803 32.4551 59.6803C32.4551 59.6803 32.4551 59.6803 32.4551 59.6803C32.4551 59.6804 32.4551 59.6804 32.4551 59.6804C32.4551 59.6804 32.4551 59.6804 32.4551 59.6804C32.4551 59.6804 32.4551 59.6804 32.4551 59.6805C32.4551 59.6805 32.4551 59.6805 32.4551 59.6805C32.4551 59.6805 32.4551 59.6805 32.4551 59.6805C32.4551 59.6806 32.4552 59.6806 32.4552 59.6806C32.4552 59.6806 32.4552 59.6806 32.4552 59.6806C32.4552 59.6806 32.4552 59.6807 32.4552 59.6807C32.4552 59.6807 32.4552 59.6807 32.4552 59.6807C32.4552 59.6807 32.4552 59.6807 32.4552 59.6808C32.4552 59.6808 32.4552 59.6808 32.4552 59.6808C32.4552 59.6808 32.4552 59.6808 32.4552 59.6808C32.4552 59.6809 32.4552 59.6809 32.4552 59.6809C32.4552 59.6809 32.4552 59.6809 32.4552 59.6809C32.4552 59.6809 32.4552 59.6809 32.4553 59.681C32.4553 59.681 32.4553 59.681 32.4553 59.681C32.4553 59.681 32.4553 59.681 32.4553 59.681C32.4553 59.6811 32.4553 59.6811 32.4553 59.6811C32.4553 59.6811 32.4553 59.6811 32.4553 59.6811C32.4553 59.6811 32.4553 59.6812 32.4553 59.6812C32.4553 59.6812 32.4553 59.6812 32.4553 59.6812C32.4553 59.6812 32.4553 59.6812 32.4553 59.6813C32.4553 59.6813 32.4553 59.6813 32.4553 59.6813C32.4553 59.6813 32.4553 59.6813 32.4553 59.6813C32.4554 59.6813 32.4554 59.6814 32.4554 59.6814C32.4554 59.6814 32.4554 59.6814 32.4554 59.6814C32.4554 59.6814 32.4554 59.6814 32.4554 59.6815C32.4554 59.6815 32.4554 59.6815 32.4554 59.6815C32.4554 59.6815 32.4554 59.6815 32.4554 59.6815C32.4554 59.6816 32.4554 59.6816 32.4554 59.6816C32.4554 59.6816 32.4554 59.6816 32.4554 59.6816C32.4554 59.6816 32.4554 59.6816 32.4554 59.6817C32.4554 59.6817 32.4554 59.6817 32.4554 59.6817C32.4554 59.6817 32.4554 59.6817 32.4555 59.6817C32.4555 59.6818 32.4555 59.6818 32.4555 59.6818C32.4555 59.6818 32.4555 59.6818 32.4555 59.6818C32.4555 59.6818 32.4555 59.6819 32.4555 59.6819C32.4555 59.6819 32.4555 59.6819 32.4555 59.6819C32.4555 59.6819 32.4555 59.6819 32.4555 59.6819C32.4555 59.682 32.4555 59.682 32.4555 59.682C32.4555 59.682 32.4555 59.682 32.4555 59.682C32.4555 59.682 32.4555 59.6821 32.4555 59.6821C32.4555 59.6821 32.4555 59.6821 32.4555 59.6821C32.4555 59.6821 32.4556 59.6821 32.4556 59.6822C32.4556 59.6822 32.4556 59.6822 32.4556 59.6822C32.4556 59.6822 32.4556 59.6822 32.4556 59.6822C32.4556 59.6822 32.4556 59.6823 32.4556 59.6823C32.4556 59.6823 32.4556 59.6823 32.4556 59.6823C32.4556 59.6823 32.4556 59.6823 32.4556 59.6824C32.4556 59.6824 32.4556 59.6824 32.4556 59.6824C32.4556 59.6824 32.4556 59.6824 32.4556 59.6824C32.4556 59.6825 32.4556 59.6825 32.4556 59.6825C32.4556 59.6825 32.4556 59.6825 32.4557 59.6825C32.4557 59.6825 32.4557 59.6825 32.4557 59.6826C32.4557 59.6826 32.4557 59.6826 32.4557 59.6826C32.4557 59.6826 32.4557 59.6826 32.4557 59.6826C32.4557 59.6827 32.4557 59.6827 32.4557 59.6827C32.4557 59.6827 32.4557 59.6827 32.4557 59.6827C32.4557 59.6827 32.4557 59.6827 32.4557 59.6828C32.4557 59.6828 32.4557 59.6828 32.4557 59.6828C32.4557 59.6828 32.4557 59.6828 32.4557 59.6828C32.4557 59.6829 32.4557 59.6829 32.4557 59.6829C32.4557 59.6829 32.4558 59.6829 32.4558 59.6829C32.4558 59.6829 32.4558 59.6829 32.4558 59.683C32.4558 59.683 32.4558 59.683 32.4558 59.683C32.4558 59.683 32.4558 59.683 32.4558 59.683C32.4558 59.6831 32.4558 59.6831 32.4558 59.6831C32.4558 59.6831 32.4558 59.6831 32.4558 59.6831C32.4558 59.6831 32.4558 59.6831 32.4558 59.6832C32.4558 59.6832 32.4558 59.6832 32.4558 59.6832C32.4558 59.6832 32.4558 59.6832 32.4558 59.6832C32.4558 59.6833 32.4558 59.6833 32.4558 59.6833C32.4558 59.6833 32.4559 59.6833 32.4559 59.6833C32.4559 59.6833 32.4559 59.6833 32.4559 59.6834C32.4559 59.6834 32.4559 59.6834 32.4559 59.6834C32.4559 59.6834 32.4559 59.6834 32.4559 59.6834C32.4559 59.6835 32.4559 59.6835 32.4559 59.6835C32.4559 59.6835 32.4559 59.6835 32.4559 59.6835C32.4559 59.6835 32.4559 59.6835 32.4559 59.6836C32.4559 59.6836 32.4559 59.6836 32.4559 59.6836C32.4559 59.6836 32.4559 59.6836 32.4559 59.6836C32.4559 59.6837 32.4559 59.6837 32.4559 59.6837C32.456 59.6837 32.456 59.6837 32.456 59.6837C32.456 59.6837 32.456 59.6837 32.456 59.6838C32.456 59.6838 32.456 59.6838 32.456 59.6838C32.456 59.6838 32.456 59.6838 32.456 59.6838C32.456 59.6839 32.456 59.6839 32.456 59.6839C32.456 59.6839 32.456 59.6839 32.456 59.6839C32.456 59.6839 32.456 59.6839 32.456 59.684L31.4636 59.9379L30.4713 60.1918C30.4713 60.1918 30.4713 60.1918 30.4713 60.1917C30.4713 60.1917 30.4713 60.1917 30.4713 60.1917C30.4712 60.1917 30.4712 60.1917 30.4712 60.1917C30.4712 60.1916 30.4712 60.1916 30.4712 60.1916C30.4712 60.1916 30.4712 60.1916 30.4712 60.1916C30.4712 60.1916 30.4712 60.1916 30.4712 60.1915C30.4712 60.1915 30.4712 60.1915 30.4712 60.1915C30.4712 60.1915 30.4712 60.1915 30.4712 60.1915C30.4712 60.1915 30.4712 60.1914 30.4712 60.1914C30.4712 60.1914 30.4712 60.1914 30.4712 60.1914C30.4712 60.1914 30.4712 60.1914 30.4712 60.1913C30.4712 60.1913 30.4712 60.1913 30.4711 60.1913C30.4711 60.1913 30.4711 60.1913 30.4711 60.1913C30.4711 60.1913 30.4711 60.1912 30.4711 60.1912C30.4711 60.1912 30.4711 60.1912 30.4711 60.1912C30.4711 60.1912 30.4711 60.1912 30.4711 60.1911C30.4711 60.1911 30.4711 60.1911 30.4711 60.1911C30.4711 60.1911 30.4711 60.1911 30.4711 60.1911C30.4711 60.1911 30.4711 60.191 30.4711 60.191C30.4711 60.191 30.4711 60.191 30.4711 60.191C30.4711 60.191 30.4711 60.191 30.4711 60.1909C30.4711 60.1909 30.4711 60.1909 30.471 60.1909C30.471 60.1909 30.471 60.1909 30.471 60.1909C30.471 60.1909 30.471 60.1908 30.471 60.1908C30.471 60.1908 30.471 60.1908 30.471 60.1908C30.471 60.1908 30.471 60.1908 30.471 60.1907C30.471 60.1907 30.471 60.1907 30.471 60.1907C30.471 60.1907 30.471 60.1907 30.471 60.1907C30.471 60.1907 30.471 60.1906 30.471 60.1906C30.471 60.1906 30.471 60.1906 30.471 60.1906C30.471 60.1906 30.471 60.1906 30.471 60.1905C30.471 60.1905 30.4709 60.1905 30.4709 60.1905C30.4709 60.1905 30.4709 60.1905 30.4709 60.1905C30.4709 60.1904 30.4709 60.1904 30.4709 60.1904C30.4709 60.1904 30.4709 60.1904 30.4709 60.1904C30.4709 60.1904 30.4709 60.1904 30.4709 60.1903C30.4709 60.1903 30.4709 60.1903 30.4709 60.1903C30.4709 60.1903 30.4709 60.1903 30.4709 60.1903C30.4709 60.1902 30.4709 60.1902 30.4709 60.1902C30.4709 60.1902 30.4709 60.1902 30.4709 60.1902C30.4709 60.1902 30.4709 60.1902 30.4709 60.1901C30.4708 60.1901 30.4708 60.1901 30.4708 60.1901C30.4708 60.1901 30.4708 60.1901 30.4708 60.1901C30.4708 60.19 30.4708 60.19 30.4708 60.19C30.4708 60.19 30.4708 60.19 30.4708 60.19C30.4708 60.19 30.4708 60.1899 30.4708 60.1899C30.4708 60.1899 30.4708 60.1899 30.4708 60.1899C30.4708 60.1899 30.4708 60.1899 30.4708 60.1899C30.4708 60.1898 30.4708 60.1898 30.4708 60.1898C30.4708 60.1898 30.4708 60.1898 30.4708 60.1898C30.4708 60.1898 30.4708 60.1897 30.4707 60.1897C30.4707 60.1897 30.4707 60.1897 30.4707 60.1897C30.4707 60.1897 30.4707 60.1897 30.4707 60.1896C30.4707 60.1896 30.4707 60.1896 30.4707 60.1896C30.4707 60.1896 30.4707 60.1896 30.4707 60.1896C30.4707 60.1896 30.4707 60.1895 30.4707 60.1895C30.4707 60.1895 30.4707 60.1895 30.4707 60.1895C30.4707 60.1895 30.4707 60.1895 30.4707 60.1894C30.4707 60.1894 30.4707 60.1894 30.4707 60.1894C30.4707 60.1894 30.4707 60.1894 30.4707 60.1894C30.4706 60.1893 30.4706 60.1893 30.4706 60.1893C30.4706 60.1893 30.4706 60.1893 30.4706 60.1893C30.4706 60.1893 30.4706 60.1893 30.4706 60.1892C30.4706 60.1892 30.4706 60.1892 30.4706 60.1892C30.4706 60.1892 30.4706 60.1892 30.4706 60.1892C30.4706 60.1891 30.4706 60.1891 30.4706 60.1891C30.4706 60.1891 30.4706 60.1891 30.4706 60.1891C30.4706 60.1891 30.4706 60.189 30.4706 60.189C30.4706 60.189 30.4706 60.189 30.4706 60.189C30.4706 60.189 30.4706 60.189 30.4705 60.189C30.4705 60.1889 30.4705 60.1889 30.4705 60.1889C30.4705 60.1889 30.4705 60.1889 30.4705 60.1889C30.4705 60.1889 30.4705 60.1888 30.4705 60.1888C30.4705 60.1888 30.4705 60.1888 30.4705 60.1888C30.4705 60.1888 30.4705 60.1888 30.4705 60.1887C30.4705 60.1887 30.4705 60.1887 30.4705 60.1887C30.4705 60.1887 30.4705 60.1887 30.4705 60.1887C30.4705 60.1886 30.4705 60.1886 30.4705 60.1886C30.4705 60.1886 30.4705 60.1886 30.4705 60.1886C30.4704 60.1886 30.4704 60.1886 30.4704 60.1885C30.4704 60.1885 30.4704 60.1885 30.4704 60.1885C30.4704 60.1885 30.4704 60.1885 30.4704 60.1885C30.4704 60.1884 30.4704 60.1884 30.4704 60.1884C30.4704 60.1884 30.4704 60.1884 30.4704 60.1884C30.4704 60.1884 30.4704 60.1883 30.4704 60.1883C30.4704 60.1883 30.4704 60.1883 30.4704 60.1883C30.4704 60.1883 30.4704 60.1883 30.4704 60.1882C30.4704 60.1882 30.4704 60.1882 30.4704 60.1882C30.4704 60.1882 30.4703 60.1882 30.4703 60.1882C30.4703 60.1881 30.4703 60.1881 30.4703 60.1881C30.4703 60.1881 30.4703 60.1881 30.4703 60.1881C30.4703 60.1881 30.4703 60.1881 30.4703 60.188C30.4703 60.188 30.4703 60.188 30.4703 60.188C30.4703 60.188 30.4703 60.188 30.4703 60.188C30.4703 60.1879 30.4703 60.1879 30.4703 60.1879C30.4703 60.1879 30.4703 60.1879 30.4703 60.1879C30.4703 60.1879 30.4703 60.1878 30.4703 60.1878C30.4703 60.1878 30.4703 60.1878 30.4702 60.1878C30.4702 60.1878 30.4702 60.1878 30.4702 60.1877C30.4702 60.1877 30.4702 60.1877 30.4702 60.1877C30.4702 60.1877 30.4702 60.1877 30.4702 60.1877C30.4702 60.1876 30.4702 60.1876 30.4702 60.1876C30.4702 60.1876 30.4702 60.1876 30.4702 60.1876C30.4702 60.1876 30.4702 60.1875 30.4702 60.1875C30.4702 60.1875 30.4702 60.1875 30.4702 60.1875C30.4702 60.1875 30.4702 60.1875 30.4702 60.1875C30.4702 60.1874 30.4702 60.1874 30.4702 60.1874C30.4701 60.1874 30.4701 60.1874 30.4701 60.1874C30.4701 60.1874 30.4701 60.1873 30.4701 60.1873C30.4701 60.1873 30.4701 60.1873 30.4701 60.1873C30.4701 60.1873 30.4701 60.1873 30.4701 60.1872C30.4701 60.1872 30.4701 60.1872 30.4701 60.1872C30.4701 60.1872 30.4701 60.1872 30.4701 60.1872C30.4701 60.1871 30.4701 60.1871 30.4701 60.1871C30.4701 60.1871 30.4701 60.1871 30.4701 60.1871C30.4701 60.1871 30.4701 60.187 30.4701 60.187C30.4701 60.187 30.47 60.187 30.47 60.187C30.47 60.187 30.47 60.187 30.47 60.1869C30.47 60.1869 30.47 60.1869 30.47 60.1869C30.47 60.1869 30.47 60.1869 30.47 60.1869C30.47 60.1868 30.47 60.1868 30.47 60.1868C30.47 60.1868 30.47 60.1868 30.47 60.1868C30.47 60.1868 30.47 60.1867 30.47 60.1867C30.47 60.1867 30.47 60.1867 30.47 60.1867C30.47 60.1867 30.47 60.1867 30.47 60.1866C30.47 60.1866 30.47 60.1866 30.4699 60.1866C30.4699 60.1866 30.4699 60.1866 30.4699 60.1866C30.4699 60.1865 30.4699 60.1865 30.4699 60.1865C30.4699 60.1865 30.4699 60.1865 30.4699 60.1865C30.4699 60.1865 30.4699 60.1865 30.4699 60.1864C30.4699 60.1864 30.4699 60.1864 30.4699 60.1864C30.4699 60.1864 30.4699 60.1864 30.4699 60.1864C30.4699 60.1863 30.4699 60.1863 30.4699 60.1863C30.4699 60.1863 30.4699 60.1863 30.4699 60.1863C30.4699 60.1863 30.4699 60.1862 30.4698 60.1862C30.4698 60.1862 30.4698 60.1862 30.4698 60.1862C30.4698 60.1862 30.4698 60.1862 30.4698 60.1861C30.4698 60.1861 30.4698 60.1861 30.4698 60.1861C30.4698 60.1861 30.4698 60.1861 30.4698 60.1861C30.4698 60.186 30.4698 60.186 30.4698 60.186C30.4698 60.186 30.4698 60.186 30.4698 60.186C30.4698 60.186 30.4698 60.1859 30.4698 60.1859C30.4698 60.1859 30.4698 60.1859 30.4698 60.1859C30.4698 60.1859 30.4698 60.1859 30.4698 60.1858C30.4697 60.1858 30.4697 60.1858 30.4697 60.1858C30.4697 60.1858 30.4697 60.1858 30.4697 60.1858C30.4697 60.1857 30.4697 60.1857 30.4697 60.1857C30.4697 60.1857 30.4697 60.1857 30.4697 60.1857C30.4697 60.1857 30.4697 60.1856 30.4697 60.1856C30.4697 60.1856 30.4697 60.1856 30.4697 60.1856C30.4697 60.1856 30.4697 60.1856 30.4697 60.1855C30.4697 60.1855 30.4697 60.1855 30.4697 60.1855C30.4697 60.1855 30.4697 60.1855 30.4697 60.1855C30.4696 60.1854 30.4696 60.1854 30.4696 60.1854C30.4696 60.1854 30.4696 60.1854 30.4696 60.1854C30.4696 60.1854 30.4696 60.1853 30.4696 60.1853C30.4696 60.1853 30.4696 60.1853 30.4696 60.1853C30.4696 60.1853 30.4696 60.1853 30.4696 60.1852C30.4696 60.1852 30.4696 60.1852 30.4696 60.1852C30.4696 60.1852 30.4696 60.1852 30.4696 60.1852C30.4696 60.1851 30.4696 60.1851 30.4696 60.1851C30.4696 60.1851 30.4696 60.1851 30.4696 60.1851C30.4696 60.1851 30.4695 60.185 30.4695 60.185C30.4695 60.185 30.4695 60.185 30.4695 60.185C30.4695 60.185 30.4695 60.185 30.4695 60.1849C30.4695 60.1849 30.4695 60.1849 30.4695 60.1849C30.4695 60.1849 30.4695 60.1849 30.4695 60.1849C30.4695 60.1848 30.4695 60.1848 30.4695 60.1848C30.4695 60.1848 30.4695 60.1848 30.4695 60.1848C30.4695 60.1848 30.4695 60.1847 30.4695 60.1847C30.4695 60.1847 30.4695 60.1847 30.4695 60.1847C30.4695 60.1847 30.4694 60.1847 30.4694 60.1846C30.4694 60.1846 30.4694 60.1846 30.4694 60.1846C30.4694 60.1846 30.4694 60.1846 30.4694 60.1846C30.4694 60.1845 30.4694 60.1845 30.4694 60.1845C30.4694 60.1845 30.4694 60.1845 30.4694 60.1845C30.4694 60.1845 30.4694 60.1844 30.4694 60.1844C30.4694 60.1844 30.4694 60.1844 30.4694 60.1844C30.4694 60.1844 30.4694 60.1844 30.4694 60.1843C30.4694 60.1843 30.4694 60.1843 30.4694 60.1843C30.4694 60.1843 30.4693 60.1843 30.4693 60.1843C30.4693 60.1842 30.4693 60.1842 30.4693 60.1842C30.4693 60.1842 30.4693 60.1842 30.4693 60.1842C30.4693 60.1842 30.4693 60.1841 30.4693 60.1841C30.4693 60.1841 30.4693 60.1841 30.4693 60.1841C30.4693 60.1841 30.4693 60.1841 30.4693 60.184C30.4693 60.184 30.4693 60.184 30.4693 60.184C30.4693 60.184 30.4693 60.184 30.4693 60.184C30.4693 60.1839 30.4693 60.1839 30.4693 60.1839C30.4693 60.1839 30.4693 60.1839 30.4692 60.1839C30.4692 60.1839 30.4692 60.1838 30.4692 60.1838C30.4692 60.1838 30.4692 60.1838 30.4692 60.1838C30.4692 60.1838 30.4692 60.1838 30.4692 60.1837C30.4692 60.1837 30.4692 60.1837 30.4692 60.1837C30.4692 60.1837 30.4692 60.1837 30.4692 60.1837C30.4692 60.1836 30.4692 60.1836 30.4692 60.1836C30.4692 60.1836 30.4692 60.1836 30.4692 60.1836C30.4692 60.1836 30.4692 60.1835 30.4692 60.1835C30.4692 60.1835 30.4692 60.1835 30.4691 60.1835C30.4691 60.1835 30.4691 60.1835 30.4691 60.1834C30.4691 60.1834 30.4691 60.1834 30.4691 60.1834C30.4691 60.1834 30.4691 60.1834 30.4691 60.1833C30.4691 60.1833 30.4691 60.1833 30.4691 60.1833C30.4691 60.1833 30.4691 60.1833 30.4691 60.1833C30.4691 60.1832 30.4691 60.1832 30.4691 60.1832C30.4691 60.1832 30.4691 60.1832 30.4691 60.1832C30.4691 60.1832 30.4691 60.1831 30.4691 60.1831C30.4691 60.1831 30.4691 60.1831 30.469 60.1831C30.469 60.1831 30.469 60.1831 30.469 60.183C30.469 60.183 30.469 60.183 30.469 60.183C30.469 60.183 30.469 60.183 30.469 60.183C30.469 60.1829 30.469 60.1829 30.469 60.1829C30.469 60.1829 30.469 60.1829 30.469 60.1829C30.469 60.1829 30.469 60.1828 30.469 60.1828C30.469 60.1828 30.469 60.1828 30.469 60.1828C30.469 60.1828 30.469 60.1828 30.469 60.1827C30.469 60.1827 30.469 60.1827 30.4689 60.1827C30.4689 60.1827 30.4689 60.1827 30.4689 60.1827C30.4689 60.1826 30.4689 60.1826 30.4689 60.1826C30.4689 60.1826 30.4689 60.1826 30.4689 60.1826C30.4689 60.1826 30.4689 60.1825 30.4689 60.1825C30.4689 60.1825 30.4689 60.1825 30.4689 60.1825C30.4689 60.1825 30.4689 60.1825 30.4689 60.1824C30.4689 60.1824 30.4689 60.1824 30.4689 60.1824C30.4689 60.1824 30.4689 60.1824 30.4689 60.1824C30.4689 60.1823 30.4689 60.1823 30.4688 60.1823C30.4688 60.1823 30.4688 60.1823 30.4688 60.1823C30.4688 60.1823 30.4688 60.1822 30.4688 60.1822C30.4688 60.1822 30.4688 60.1822 30.4688 60.1822C30.4688 60.1822 30.4688 60.1822 30.4688 60.1821C30.4688 60.1821 30.4688 60.1821 30.4688 60.1821C30.4688 60.1821 30.4688 60.1821 30.4688 60.1821C30.4688 60.182 30.4688 60.182 30.4688 60.182C30.4688 60.182 30.4688 60.182 30.4688 60.182C30.4688 60.1819 30.4688 60.1819 30.4687 60.1819C30.4687 60.1819 30.4687 60.1819 30.4687 60.1819C30.4687 60.1819 30.4687 60.1818 30.4687 60.1818C30.4687 60.1818 30.4687 60.1818 30.4687 60.1818C30.4687 60.1818 30.4687 60.1818 30.4687 60.1817C30.4687 60.1817 30.4687 60.1817 30.4687 60.1817C30.4687 60.1817 30.4687 60.1817 30.4687 60.1817C30.4687 60.1816 30.4687 60.1816 30.4687 60.1816C30.4687 60.1816 30.4687 60.1816 30.4687 60.1816C30.4687 60.1816 30.4687 60.1815 30.4686 60.1815C30.4686 60.1815 30.4686 60.1815 30.4686 60.1815C30.4686 60.1815 30.4686 60.1815 30.4686 60.1814C30.4686 60.1814 30.4686 60.1814 30.4686 60.1814C30.4686 60.1814 30.4686 60.1814 30.4686 60.1814C30.4686 60.1813 30.4686 60.1813 30.4686 60.1813C30.4686 60.1813 30.4686 60.1813 30.4686 60.1813C30.4686 60.1813 30.4686 60.1812 30.4686 60.1812C30.4686 60.1812 30.4686 60.1812 30.4686 60.1812C30.4686 60.1812 30.4686 60.1812 30.4685 60.1811C30.4685 60.1811 30.4685 60.1811 30.4685 60.1811C30.4685 60.1811 30.4685 60.1811 30.4685 60.1811C30.4685 60.181 30.4685 60.181 30.4685 60.181C30.4685 60.181 30.4685 60.181 30.4685 60.181C30.4685 60.181 30.4685 60.1809 30.4685 60.1809C30.4685 60.1809 30.4685 60.1809 30.4685 60.1809C30.4685 60.1809 30.4685 60.1809 30.4685 60.1808C30.4685 60.1808 30.4685 60.1808 30.4685 60.1808C30.4685 60.1808 30.4685 60.1808 30.4684 60.1807C30.4684 60.1807 30.4684 60.1807 30.4684 60.1807C30.4684 60.1807 30.4684 60.1807 30.4684 60.1807C30.4684 60.1806 30.4684 60.1806 30.4684 60.1806C30.4684 60.1806 30.4684 60.1806 30.4684 60.1806C30.4684 60.1806 30.4684 60.1805 30.4684 60.1805C30.4684 60.1805 30.4684 60.1805 30.4684 60.1805C30.4684 60.1805 30.4684 60.1805 30.4684 60.1804C30.4684 60.1804 30.4684 60.1804 30.4684 60.1804C30.4684 60.1804 30.4684 60.1804 30.4683 60.1804C30.4683 60.1803 30.4683 60.1803 30.4683 60.1803C30.4683 60.1803 30.4683 60.1803 30.4683 60.1803C30.4683 60.1803 30.4683 60.1802 30.4683 60.1802C30.4683 60.1802 30.4683 60.1802 30.4683 60.1802C30.4683 60.1802 30.4683 60.1802 30.4683 60.1801C30.4683 60.1801 30.4683 60.1801 30.4683 60.1801C30.4683 60.1801 30.4683 60.1801 30.4683 60.1801C30.4683 60.18 30.4683 60.18 30.4683 60.18C30.4683 60.18 30.4683 60.18 30.4682 60.18C30.4682 60.18 30.4682 60.1799 30.4682 60.1799C30.4682 60.1799 30.4682 60.1799 30.4682 60.1799C30.4682 60.1799 30.4682 60.1799 30.4682 60.1798C30.4682 60.1798 30.4682 60.1798 30.4682 60.1798C30.4682 60.1798 30.4682 60.1798 30.4682 60.1798C30.4682 60.1797 30.4682 60.1797 30.4682 60.1797C30.4682 60.1797 30.4682 60.1797 30.4682 60.1797C30.4682 60.1797 30.4682 60.1796 30.4682 60.1796C30.4682 60.1796 30.4682 60.1796 30.4681 60.1796C30.4681 60.1796 30.4681 60.1795 30.4681 60.1795C30.4681 60.1795 30.4681 60.1795 30.4681 60.1795C30.4681 60.1795 30.4681 60.1795 30.4681 60.1794C30.4681 60.1794 30.4681 60.1794 30.4681 60.1794C30.4681 60.1794 30.4681 60.1794 30.4681 60.1794C30.4681 60.1793 30.4681 60.1793 30.4681 60.1793C30.4681 60.1793 30.4681 60.1793 30.4681 60.1793C30.4681 60.1793 30.4681 60.1792 30.4681 60.1792C30.4681 60.1792 30.4681 60.1792 30.468 60.1792C30.468 60.1792 30.468 60.1792 30.468 60.1791C30.468 60.1791 30.468 60.1791 30.468 60.1791C30.468 60.1791 30.468 60.1791 30.468 60.1791C30.468 60.179 30.468 60.179 30.468 60.179C30.468 60.179 30.468 60.179 30.468 60.179C30.468 60.179 30.468 60.1789 30.468 60.1789C30.468 60.1789 30.468 60.1789 30.468 60.1789C30.468 60.1789 30.468 60.1789 30.468 60.1788C30.468 60.1788 30.468 60.1788 30.468 60.1788C30.4679 60.1788 30.4679 60.1788 30.4679 60.1788C30.4679 60.1787 30.4679 60.1787 30.4679 60.1787C30.4679 60.1787 30.4679 60.1787 30.4679 60.1787C30.4679 60.1787 30.4679 60.1786 30.4679 60.1786C30.4679 60.1786 30.4679 60.1786 30.4679 60.1786C30.4679 60.1786 30.4679 60.1786 30.4679 60.1785C30.4679 60.1785 30.4679 60.1785 30.4679 60.1785C30.4679 60.1785 30.4679 60.1785 30.4679 60.1785C30.4679 60.1784 30.4679 60.1784 30.4679 60.1784C30.4678 60.1784 30.4678 60.1784 30.4678 60.1784C30.4678 60.1784 30.4678 60.1783 30.4678 60.1783C30.4678 60.1783 30.4678 60.1783 30.4678 60.1783C30.4678 60.1783 30.4678 60.1783 30.4678 60.1782C30.4678 60.1782 30.4678 60.1782 30.4678 60.1782C30.4678 60.1782 30.4678 60.1782 30.4678 60.1782C30.4678 60.1781 30.4678 60.1781 30.4678 60.1781C30.4678 60.1781 30.4678 60.1781 30.4678 60.1781C30.4678 60.1781 30.4678 60.178 30.4678 60.178C30.4677 60.178 30.4677 60.178 30.4677 60.178C30.4677 60.178 30.4677 60.178 30.4677 60.1779C30.4677 60.1779 30.4677 60.1779 30.4677 60.1779C30.4677 60.1779 30.4677 60.1779 30.4677 60.1778C30.4677 60.1778 30.4677 60.1778 30.4677 60.1778C30.4677 60.1778 30.4677 60.1778 30.4677 60.1778C30.4677 60.1777 30.4677 60.1777 30.4677 60.1777C30.4677 60.1777 30.4677 60.1777 30.4677 60.1777C30.4677 60.1777 30.4677 60.1776 30.4677 60.1776C30.4676 60.1776 30.4676 60.1776 30.4676 60.1776C30.4676 60.1776 30.4676 60.1776 30.4676 60.1775C30.4676 60.1775 30.4676 60.1775 30.4676 60.1775C30.4676 60.1775 30.4676 60.1775 30.4676 60.1775C30.4676 60.1774 30.4676 60.1774 30.4676 60.1774C30.4676 60.1774 30.4676 60.1774 30.4676 60.1774C30.4676 60.1774 30.4676 60.1773 30.4676 60.1773C30.4676 60.1773 30.4676 60.1773 30.4676 60.1773C30.4676 60.1773 30.4676 60.1773 30.4676 60.1772C30.4675 60.1772 30.4675 60.1772 30.4675 60.1772C30.4675 60.1772 30.4675 60.1772 30.4675 60.1772C30.4675 60.1771 30.4675 60.1771 30.4675 60.1771C30.4675 60.1771 30.4675 60.1771 30.4675 60.1771C30.4675 60.1771 30.4675 60.177 30.4675 60.177C30.4675 60.177 30.4675 60.177 30.4675 60.177C30.4675 60.177 30.4675 60.177 30.4675 60.1769C30.4675 60.1769 30.4675 60.1769 30.4675 60.1769C30.4675 60.1769 30.4675 60.1769 30.4675 60.1769C30.4675 60.1768 30.4674 60.1768 30.4674 60.1768C30.4674 60.1768 30.4674 60.1768 30.4674 60.1768C30.4674 60.1768 30.4674 60.1767 30.4674 60.1767C30.4674 60.1767 30.4674 60.1767 30.4674 60.1767C30.4674 60.1767 30.4674 60.1767 30.4674 60.1766C30.4674 60.1766 30.4674 60.1766 30.4674 60.1766C30.4674 60.1766 30.4674 60.1766 30.4674 60.1766C30.4674 60.1765 30.4674 60.1765 30.4674 60.1765C30.4674 60.1765 30.4674 60.1765 30.4674 60.1765C30.4674 60.1765 30.4673 60.1764 30.4673 60.1764C30.4673 60.1764 30.4673 60.1764 30.4673 60.1764C30.4673 60.1764 30.4673 60.1764 30.4673 60.1763C30.4673 60.1763 30.4673 60.1763 30.4673 60.1763C30.4673 60.1763 30.4673 60.1763 30.4673 60.1763C30.4673 60.1762 30.4673 60.1762 30.4673 60.1762C30.4673 60.1762 30.4673 60.1762 30.4673 60.1762C30.4673 60.1762 30.4673 60.1761 30.4673 60.1761C30.4673 60.1761 30.4673 60.1761 30.4673 60.1761C30.4673 60.1761 30.4673 60.1761 30.4672 60.1761C30.4672 60.176 30.4672 60.176 30.4672 60.176C30.4672 60.176 30.4672 60.176 30.4672 60.176C30.4672 60.176 30.4672 60.1759 30.4672 60.1759C30.4672 60.1759 30.4672 60.1759 30.4672 60.1759C30.4672 60.1759 30.4672 60.1759 30.4672 60.1758C30.4672 60.1758 30.4672 60.1758 30.4672 60.1758C30.4672 60.1758 30.4672 60.1758 30.4672 60.1758C30.4672 60.1757 30.4672 60.1757 30.4672 60.1757C30.4672 60.1757 30.4672 60.1757 30.4671 60.1757C30.4671 60.1757 30.4671 60.1756 30.4671 60.1756C30.4671 60.1756 30.4671 60.1756 30.4671 60.1756C30.4671 60.1756 30.4671 60.1756 30.4671 60.1755C30.4671 60.1755 30.4671 60.1755 30.4671 60.1755C30.4671 60.1755 30.4671 60.1755 30.4671 60.1755C30.4671 60.1754 30.4671 60.1754 30.4671 60.1754C30.4671 60.1754 30.4671 60.1754 30.4671 60.1754C30.4671 60.1754 30.4671 60.1753 30.4671 60.1753C30.4671 60.1753 30.4671 60.1753 30.4671 60.1753C30.467 60.1753 30.467 60.1753 30.467 60.1752C30.467 60.1752 30.467 60.1752 30.467 60.1752C30.467 60.1752 30.467 60.1752 30.467 60.1752C30.467 60.1751 30.467 60.1751 30.467 60.1751C30.467 60.1751 30.467 60.1751 30.467 60.1751C30.467 60.1751 30.467 60.175 30.467 60.175C30.467 60.175 30.467 60.175 30.467 60.175C30.467 60.175 30.467 60.175 30.467 60.1749C30.467 60.1749 30.467 60.1749 30.467 60.1749C30.467 60.1749 30.4669 60.1749 30.4669 60.1749C30.4669 60.1748 30.4669 60.1748 30.4669 60.1748C30.4669 60.1748 30.4669 60.1748 30.4669 60.1748C30.4669 60.1748 30.4669 60.1748 30.4669 60.1747C30.4669 60.1747 30.4669 60.1747 30.4669 60.1747C30.4669 60.1747 30.4669 60.1747 30.4669 60.1747C30.4669 60.1746 30.4669 60.1746 30.4669 60.1746C30.4669 60.1746 30.4669 60.1746 30.4669 60.1746C30.4669 60.1746 30.4669 60.1745 30.4669 60.1745C30.4669 60.1745 30.4668 60.1745 30.4668 60.1745C30.4668 60.1745 30.4668 60.1745 30.4668 60.1744C30.4668 60.1744 30.4668 60.1744 30.4668 60.1744C30.4668 60.1744 30.4668 60.1744 30.4668 60.1744C30.4668 60.1743 30.4668 60.1743 30.4668 60.1743C30.4668 60.1743 30.4668 60.1743 30.4668 60.1743C30.4668 60.1743 30.4668 60.1742 30.4668 60.1742C30.4668 60.1742 30.4668 60.1742 30.4668 60.1742C30.4668 60.1742 30.4668 60.1742 30.4668 60.1741C30.4668 60.1741 30.4668 60.1741 30.4667 60.1741C30.4667 60.1741 30.4667 60.1741 30.4667 60.1741C30.4667 60.1741 30.4667 60.174 30.4667 60.174C30.4667 60.174 30.4667 60.174 30.4667 60.174C30.4667 60.174 30.4667 60.174 30.4667 60.1739C30.4667 60.1739 30.4667 60.1739 30.4667 60.1739C30.4667 60.1739 30.4667 60.1739 30.4667 60.1739C30.4667 60.1738 30.4667 60.1738 30.4667 60.1738C30.4667 60.1738 30.4667 60.1738 30.4667 60.1738C30.4667 60.1738 30.4667 60.1737 30.4667 60.1737C30.4667 60.1737 30.4666 60.1737 30.4666 60.1737C30.4666 60.1737 30.4666 60.1737 30.4666 60.1736C30.4666 60.1736 30.4666 60.1736 30.4666 60.1736C30.4666 60.1736 30.4666 60.1736 30.4666 60.1736C30.4666 60.1736 30.4666 60.1735 30.4666 60.1735C30.4666 60.1735 30.4666 60.1735 30.4666 60.1735C30.4666 60.1735 30.4666 60.1735 30.4666 60.1734C30.4666 60.1734 30.4666 60.1734 30.4666 60.1734C30.4666 60.1734 30.4666 60.1734 30.4666 60.1734C30.4666 60.1733 30.4666 60.1733 30.4665 60.1733C30.4665 60.1733 30.4665 60.1733 30.4665 60.1733C30.4665 60.1733 30.4665 60.1732 30.4665 60.1732C30.4665 60.1732 30.4665 60.1732 30.4665 60.1732C30.4665 60.1732 30.4665 60.1732 30.4665 60.1732C30.4665 60.1731 30.4665 60.1731 30.4665 60.1731C30.4665 60.1731 30.4665 60.1731 30.4665 60.1731C30.4665 60.1731 30.4665 60.173 30.4665 60.173C30.4665 60.173 30.4665 60.173 30.4665 60.173C30.4665 60.173 30.4665 60.173 30.4665 60.1729C30.4664 60.1729 30.4664 60.1729 30.4664 60.1729C30.4664 60.1729 30.4664 60.1729 30.4664 60.1729C30.4664 60.1728 30.4664 60.1728 30.4664 60.1728C30.4664 60.1728 30.4664 60.1728 30.4664 60.1728C30.4664 60.1728 30.4664 60.1728 30.4664 60.1727C30.4664 60.1727 30.4664 60.1727 30.4664 60.1727C30.4664 60.1727 30.4664 60.1727 30.4664 60.1727C30.4664 60.1726 30.4664 60.1726 30.4664 60.1726C30.4664 60.1726 30.4664 60.1726 30.4664 60.1726C30.4664 60.1726 30.4664 60.1725 30.4663 60.1725C30.4663 60.1725 30.4663 60.1725 30.4663 60.1725C30.4663 60.1725 30.4663 60.1725 30.4663 60.1725C30.4663 60.1724 30.4663 60.1724 30.4663 60.1724C30.4663 60.1724 30.4663 60.1724 30.4663 60.1724C30.4663 60.1724 30.4663 60.1723 30.4663 60.1723C30.4663 60.1723 30.4663 60.1723 30.4663 60.1723C30.4663 60.1723 30.4663 60.1723 30.4663 60.1722C30.4663 60.1722 30.4663 60.1722 30.4663 60.1722C30.4663 60.1722 30.4663 60.1722 30.4663 60.1722C30.4662 60.1722 30.4662 60.1721 30.4662 60.1721C30.4662 60.1721 30.4662 60.1721 30.4662 60.1721C30.4662 60.1721 30.4662 60.1721 30.4662 60.172C30.4662 60.172 30.4662 60.172 30.4662 60.172C30.4662 60.172 30.4662 60.172 30.4662 60.172C30.4662 60.1719 30.4662 60.1719 30.4662 60.1719C30.4662 60.1719 30.4662 60.1719 30.4662 60.1719C30.4662 60.1719 30.4662 60.1719 30.4662 60.1718C30.4662 60.1718 30.4662 60.1718 30.4662 60.1718C30.4662 60.1718 30.4662 60.1718 30.4661 60.1718C30.4661 60.1717 30.4661 60.1717 30.4661 60.1717C30.4661 60.1717 30.4661 60.1717 30.4661 60.1717C30.4661 60.1717 30.4661 60.1717 30.4661 60.1716C30.4661 60.1716 30.4661 60.1716 30.4661 60.1716C30.4661 60.1716 30.4661 60.1716 30.4661 60.1716C30.4661 60.1715 30.4661 60.1715 30.4661 60.1715C30.4661 60.1715 30.4661 60.1715 30.4661 60.1715C30.4661 60.1715 30.4661 60.1714 30.4661 60.1714C30.4661 60.1714 30.4661 60.1714 30.4661 60.1714C30.4661 60.1714 30.466 60.1714 30.466 60.1714C30.466 60.1713 30.466 60.1713 30.466 60.1713C30.466 60.1713 30.466 60.1713 30.466 60.1713C30.466 60.1713 30.466 60.1712 30.466 60.1712C30.466 60.1712 30.466 60.1712 30.466 60.1712C30.466 60.1712 30.466 60.1712 30.466 60.1712C30.466 60.1711 30.466 60.1711 30.466 60.1711C30.466 60.1711 30.466 60.1711 30.466 60.1711C30.466 60.1711 30.466 60.171 30.466 60.171C30.466 60.171 30.466 60.171 30.466 60.171C30.4659 60.171 30.4659 60.171 30.4659 60.171C30.4659 60.1709 30.4659 60.1709 30.4659 60.1709C30.4659 60.1709 30.4659 60.1709 30.4659 60.1709C30.4659 60.1709 30.4659 60.1708 30.4659 60.1708C30.4659 60.1708 30.4659 60.1708 30.4659 60.1708C30.4659 60.1708 30.4659 60.1708 30.4659 60.1708C30.4659 60.1707 30.4659 60.1707 30.4659 60.1707C30.4659 60.1707 30.4659 60.1707 30.4659 60.1707C30.4659 60.1707 30.4659 60.1706 30.4659 60.1706C30.4659 60.1706 30.4659 60.1706 30.4659 60.1706C30.4658 60.1706 30.4658 60.1706 30.4658 60.1706C30.4658 60.1705 30.4658 60.1705 30.4658 60.1705C30.4658 60.1705 30.4658 60.1705 30.4658 60.1705C30.4658 60.1705 30.4658 60.1704 30.4658 60.1704C30.4658 60.1704 30.4658 60.1704 30.4658 60.1704C30.4658 60.1704 30.4658 60.1704 30.4658 60.1704C30.4658 60.1703 30.4658 60.1703 30.4658 60.1703C30.4658 60.1703 30.4658 60.1703 30.4658 60.1703C30.4658 60.1703 30.4658 60.1703 30.4658 60.1702L31.4581 59.9163ZM31.4636 59.9379L32.4231 59.5792C32.49 59.758 32.5679 59.8231 32.6104 59.8486C32.6518 59.8735 32.7411 59.9095 32.9211 59.8838L33.0663 60.8978L33.2115 61.9118C32.6401 61.9936 32.0621 61.9085 31.5572 61.6059C31.0532 61.3038 30.7055 60.8353 30.5042 60.2966L31.4636 59.9379ZM33.0663 60.8978L32.9166 59.8844C32.9563 59.8785 32.9861 59.8724 33.0063 59.8672L33.2602 60.8596L33.5141 61.852C33.4104 61.8785 33.3089 61.8974 33.216 61.9111L33.0663 60.8978ZM34.0671 59.4941L35.0913 59.5085C35.0805 60.2759 34.7606 60.8512 34.2958 61.2184C33.8769 61.5493 33.4192 61.6503 33.1798 61.6847L33.034 60.6708L32.8882 59.6568C32.9134 59.6532 32.9454 59.6464 32.9759 59.6354C33.0065 59.6244 33.0215 59.6142 33.0259 59.6108C33.0274 59.6096 33.0265 59.6101 33.0247 59.6123C33.0227 59.6148 33.0221 59.6162 33.0228 59.6147C33.0236 59.6131 33.0278 59.6042 33.0323 59.5845C33.0368 59.5645 33.0421 59.5306 33.0428 59.4797L34.0671 59.4941ZM33.034 60.6708L33.1797 61.6847C32.8947 61.7256 32.4305 61.745 31.9453 61.5443C31.4202 61.3271 30.9782 60.8957 30.7261 60.2357L31.683 59.8703L32.64 59.5048C32.675 59.5966 32.7065 59.6323 32.7147 59.6409C32.7222 59.6488 32.7252 59.6499 32.7284 59.6512C32.7349 59.6539 32.752 59.6594 32.7834 59.6616C32.8154 59.6639 32.8518 59.6621 32.8883 59.6568L33.034 60.6708ZM31.683 59.8703L30.6635 59.969C30.6211 59.5312 30.8214 59.2012 30.9789 59.0179C31.1385 58.8322 31.33 58.7021 31.493 58.6121C31.8247 58.4288 32.2324 58.3051 32.646 58.2398L32.8058 59.2516L32.9655 60.2634C32.7201 60.3022 32.5546 60.3661 32.4838 60.4052C32.4455 60.4264 32.4785 60.4162 32.5327 60.3531C32.5849 60.2923 32.7332 60.0875 32.7026 59.7715L31.683 59.8703ZM32.8058 59.2516L32.6455 58.2399C33.0504 58.1757 33.4991 58.1638 33.8875 58.2426L33.6838 59.2464L33.4801 60.2503C33.3995 60.234 33.209 60.2248 32.9661 60.2633L32.8058 59.2516ZM33.6838 59.2464L33.8911 58.2433C33.9944 58.2647 34.1888 58.3117 34.3871 58.4156C34.559 58.5057 34.9581 58.7579 35.0683 59.2846L34.0657 59.4944L33.0631 59.7042C33.1018 59.8891 33.1933 60.0219 33.2707 60.1028C33.3429 60.1783 33.409 60.216 33.436 60.2301C33.4839 60.2552 33.5034 60.2552 33.4765 60.2496L33.6838 59.2464ZM34.0657 59.4944L33.8118 58.5021L33.8131 58.5017L34.0671 59.4941L34.321 60.4865L34.3196 60.4868L34.0657 59.4944Z" fill="#EACBB8" mask="url(#path-24-inside-2_2572_6457)"/>
</g>
<path d="M42.1147 52.2227C43.1922 53.8388 43.7134 55.9749 43.189 58.5977C43.135 58.8684 42.8718 59.0442 42.6011 58.9902C42.3303 58.9363 42.1546 58.6731 42.2085 58.4023C42.6839 56.0252 42.2052 54.1611 41.2827 52.7773C41.1295 52.5476 41.1916 52.2372 41.4214 52.084C41.6511 51.9308 41.9616 51.9929 42.1147 52.2227Z" fill="#EA7E26"/>
<defs>
<filter id="filter0_dii_2572_6457" x="32.9319" y="37.1511" width="18.3898" height="20.7289" filterUnits="userSpaceOnUse" color-interpolation-filters="sRGB">
<feFlood flood-opacity="0" result="BackgroundImageFix"/>
<feColorMatrix in="SourceAlpha" type="matrix" values="0 0 0 0 0 0 0 0 0 0 0 0 0 0 0 0 0 0 127 0" result="hardAlpha"/>
<feOffset dy="1.2"/>
<feGaussianBlur stdDeviation="0.6"/>
<feComposite in2="hardAlpha" operator="out"/>
<feColorMatrix type="matrix" values="0 0 0 0 0.4 0 0 0 0 0.407843 0 0 0 0 0.513726 0 0 0 0.3 0"/>
<feBlend mode="normal" in2="BackgroundImageFix" result="effect1_dropShadow_2572_6457"/>
<feBlend mode="normal" in="SourceGraphic" in2="effect1_dropShadow_2572_6457" result="shape"/>
<feColorMatrix in="SourceAlpha" type="matrix" values="0 0 0 0 0 0 0 0 0 0 0 0 0 0 0 0 0 0 127 0" result="hardAlpha"/>
<feOffset dx="1.5" dy="1.5"/>
<feGaussianBlur stdDeviation="0.9"/>
<feComposite in2="hardAlpha" operator="arithmetic" k2="-1" k3="1"/>
<feColorMatrix type="matrix" values="0 0 0 0 1 0 0 0 0 1 0 0 0 0 1 0 0 0 0.2 0"/>
<feBlend mode="normal" in2="shape" result="effect2_innerShadow_2572_6457"/>
<feColorMatrix in="SourceAlpha" type="matrix" values="0 0 0 0 0 0 0 0 0 0 0 0 0 0 0 0 0 0 127 0" result="hardAlpha"/>
<feOffset dx="-1.8" dy="-0.9"/>
<feGaussianBlur stdDeviation="0.9"/>
<feComposite in2="hardAlpha" operator="arithmetic" k2="-1" k3="1"/>
<feColorMatrix type="matrix" values="0 0 0 0 1 0 0 0 0 1 0 0 0 0 1 0 0 0 0.1 0"/>
<feBlend mode="normal" in2="effect2_innerShadow_2572_6457" result="effect3_innerShadow_2572_6457"/>
</filter>
<clipPath id="bgblur_0_2572_6457_clip_path" transform="translate(-32.9319 -37.1511)"><path d="M34.7322 44.863L38.5386 43.7907C40.8718 43.1333 41.9837 40.4735 40.8125 38.3512L49.8217 45.84C47.9185 45.6574 46.302 47.2173 46.4167 49.1257L46.7985 55.4799L45.4756 51.6326C44.1059 47.6489 40.3864 44.9508 36.1743 44.8854L34.7322 44.863Z"/>
</clipPath><filter id="filter1_dii_2572_6457" x="22.8987" y="42.8" width="25.3" height="25.6" filterUnits="userSpaceOnUse" color-interpolation-filters="sRGB">
<feFlood flood-opacity="0" result="BackgroundImageFix"/>
<feColorMatrix in="SourceAlpha" type="matrix" values="0 0 0 0 0 0 0 0 0 0 0 0 0 0 0 0 0 0 127 0" result="hardAlpha"/>
<feOffset dy="1.2"/>
<feGaussianBlur stdDeviation="0.6"/>
<feComposite in2="hardAlpha" operator="out"/>
<feColorMatrix type="matrix" values="0 0 0 0 0.4 0 0 0 0 0.407843 0 0 0 0 0.513726 0 0 0 0.3 0"/>
<feBlend mode="normal" in2="BackgroundImageFix" result="effect1_dropShadow_2572_6457"/>
<feBlend mode="normal" in="SourceGraphic" in2="effect1_dropShadow_2572_6457" result="shape"/>
<feColorMatrix in="SourceAlpha" type="matrix" values="0 0 0 0 0 0 0 0 0 0 0 0 0 0 0 0 0 0 127 0" result="hardAlpha"/>
<feOffset dx="1.5" dy="1.5"/>
<feGaussianBlur stdDeviation="0.9"/>
<feComposite in2="hardAlpha" operator="arithmetic" k2="-1" k3="1"/>
<feColorMatrix type="matrix" values="0 0 0 0 1 0 0 0 0 1 0 0 0 0 1 0 0 0 0.2 0"/>
<feBlend mode="normal" in2="shape" result="effect2_innerShadow_2572_6457"/>
<feColorMatrix in="SourceAlpha" type="matrix" values="0 0 0 0 0 0 0 0 0 0 0 0 0 0 0 0 0 0 127 0" result="hardAlpha"/>
<feOffset dx="-1.8" dy="-0.9"/>
<feGaussianBlur stdDeviation="0.9"/>
<feComposite in2="hardAlpha" operator="arithmetic" k2="-1" k3="1"/>
<feColorMatrix type="matrix" values="0 0 0 0 1 0 0 0 0 1 0 0 0 0 1 0 0 0 0.1 0"/>
<feBlend mode="normal" in2="effect2_innerShadow_2572_6457" result="effect3_innerShadow_2572_6457"/>
</filter>
<clipPath id="bgblur_1_2572_6457_clip_path" transform="translate(-22.8987 -42.8)"><path d="M46.6987 55C46.6987 56.43 46.4237 57.805 45.9287 59.0517C44.6637 62.2417 41.9504 64.6983 38.5954 65.615C37.6787 65.8717 36.7071 66 35.6987 66C34.6904 66 33.7187 65.8717 32.8021 65.615C29.4471 64.6983 26.7337 62.2417 25.4687 59.0517C24.9737 57.805 24.6987 56.43 24.6987 55C24.6987 48.9317 29.6304 44 35.6987 44C41.7671 44 46.6987 48.9317 46.6987 55Z"/>
</clipPath><filter id="filter2_dii_2572_6457" x="34.65" y="4.61865" width="44.7559" height="45.2316" filterUnits="userSpaceOnUse" color-interpolation-filters="sRGB">
<feFlood flood-opacity="0" result="BackgroundImageFix"/>
<feColorMatrix in="SourceAlpha" type="matrix" values="0 0 0 0 0 0 0 0 0 0 0 0 0 0 0 0 0 0 127 0" result="hardAlpha"/>
<feOffset dy="1.36579"/>
<feGaussianBlur stdDeviation="0.682895"/>
<feComposite in2="hardAlpha" operator="out"/>
<feColorMatrix type="matrix" values="0 0 0 0 0.4 0 0 0 0 0.407843 0 0 0 0 0.513726 0 0 0 0.4 0"/>
<feBlend mode="normal" in2="BackgroundImageFix" result="effect1_dropShadow_2572_6457"/>
<feBlend mode="normal" in="SourceGraphic" in2="effect1_dropShadow_2572_6457" result="shape"/>
<feColorMatrix in="SourceAlpha" type="matrix" values="0 0 0 0 0 0 0 0 0 0 0 0 0 0 0 0 0 0 127 0" result="hardAlpha"/>
<feOffset dx="1.70724" dy="1.70724"/>
<feGaussianBlur stdDeviation="1.02434"/>
<feComposite in2="hardAlpha" operator="arithmetic" k2="-1" k3="1"/>
<feColorMatrix type="matrix" values="0 0 0 0 1 0 0 0 0 1 0 0 0 0 1 0 0 0 0.2 0"/>
<feBlend mode="normal" in2="shape" result="effect2_innerShadow_2572_6457"/>
<feColorMatrix in="SourceAlpha" type="matrix" values="0 0 0 0 0 0 0 0 0 0 0 0 0 0 0 0 0 0 127 0" result="hardAlpha"/>
<feOffset dx="-2.04868" dy="-1.02434"/>
<feGaussianBlur stdDeviation="1.02434"/>
<feComposite in2="hardAlpha" operator="arithmetic" k2="-1" k3="1"/>
<feColorMatrix type="matrix" values="0 0 0 0 1 0 0 0 0 1 0 0 0 0 1 0 0 0 0.1 0"/>
<feBlend mode="normal" in2="effect2_innerShadow_2572_6457" result="effect3_innerShadow_2572_6457"/>
</filter>
<clipPath id="bgblur_2_2572_6457_clip_path" transform="translate(-34.65 -4.61865)"><path d="M77.6987 26.6187C77.6987 29.2837 77.1862 31.8462 76.2637 34.1695C73.9062 40.1145 68.8496 44.6928 62.5971 46.4011C60.8887 46.8795 59.0779 47.1187 57.1987 47.1187C55.3196 47.1187 53.5087 46.8795 51.8004 46.4011C45.5479 44.6928 40.4912 40.1145 38.1337 34.1695C37.2112 31.8462 36.6987 29.2837 36.6987 26.6187C36.6987 15.3095 45.8896 6.11865 57.1987 6.11865C68.5079 6.11865 77.6987 15.3095 77.6987 26.6187Z"/>
</clipPath><filter id="filter3_dii_2572_6457" x="64.65" y="31.6187" width="15.7559" height="16.2316" filterUnits="userSpaceOnUse" color-interpolation-filters="sRGB">
<feFlood flood-opacity="0" result="BackgroundImageFix"/>
<feColorMatrix in="SourceAlpha" type="matrix" values="0 0 0 0 0 0 0 0 0 0 0 0 0 0 0 0 0 0 127 0" result="hardAlpha"/>
<feOffset dy="1.36579"/>
<feGaussianBlur stdDeviation="0.682895"/>
<feComposite in2="hardAlpha" operator="out"/>
<feColorMatrix type="matrix" values="0 0 0 0 0.4 0 0 0 0 0.407843 0 0 0 0 0.513726 0 0 0 0.4 0"/>
<feBlend mode="normal" in2="BackgroundImageFix" result="effect1_dropShadow_2572_6457"/>
<feBlend mode="normal" in="SourceGraphic" in2="effect1_dropShadow_2572_6457" result="shape"/>
<feColorMatrix in="SourceAlpha" type="matrix" values="0 0 0 0 0 0 0 0 0 0 0 0 0 0 0 0 0 0 127 0" result="hardAlpha"/>
<feOffset dx="1.70724" dy="1.70724"/>
<feGaussianBlur stdDeviation="1.02434"/>
<feComposite in2="hardAlpha" operator="arithmetic" k2="-1" k3="1"/>
<feColorMatrix type="matrix" values="0 0 0 0 1 0 0 0 0 1 0 0 0 0 1 0 0 0 0.2 0"/>
<feBlend mode="normal" in2="shape" result="effect2_innerShadow_2572_6457"/>
<feColorMatrix in="SourceAlpha" type="matrix" values="0 0 0 0 0 0 0 0 0 0 0 0 0 0 0 0 0 0 127 0" result="hardAlpha"/>
<feOffset dx="-2.04868" dy="-1.02434"/>
<feGaussianBlur stdDeviation="1.02434"/>
<feComposite in2="hardAlpha" operator="arithmetic" k2="-1" k3="1"/>
<feColorMatrix type="matrix" values="0 0 0 0 1 0 0 0 0 1 0 0 0 0 1 0 0 0 0.1 0"/>
<feBlend mode="normal" in2="effect2_innerShadow_2572_6457" result="effect3_innerShadow_2572_6457"/>
</filter>
<clipPath id="bgblur_3_2572_6457_clip_path" transform="translate(-64.65 -31.6187)"><path d="M78.6987 39.1187C78.6987 39.8987 78.5487 40.6487 78.2787 41.3287C77.5887 43.0687 76.1087 44.4087 74.2787 44.9087C73.7787 45.0487 73.2487 45.1187 72.6987 45.1187C72.1487 45.1187 71.6187 45.0487 71.1187 44.9087C69.2887 44.4087 67.8087 43.0687 67.1187 41.3287C66.8487 40.6487 66.6987 39.8987 66.6987 39.1187C66.6987 35.8087 69.3887 33.1187 72.6987 33.1187C76.0087 33.1187 78.6987 35.8087 78.6987 39.1187Z"/>
</clipPath><filter id="filter4_dii_2572_6457" x="49.8987" y="51.8" width="35.3" height="28.6" filterUnits="userSpaceOnUse" color-interpolation-filters="sRGB">
<feFlood flood-opacity="0" result="BackgroundImageFix"/>
<feColorMatrix in="SourceAlpha" type="matrix" values="0 0 0 0 0 0 0 0 0 0 0 0 0 0 0 0 0 0 127 0" result="hardAlpha"/>
<feOffset dy="1.2"/>
<feGaussianBlur stdDeviation="0.6"/>
<feComposite in2="hardAlpha" operator="out"/>
<feColorMatrix type="matrix" values="0 0 0 0 0.4 0 0 0 0 0.407843 0 0 0 0 0.513726 0 0 0 0.3 0"/>
<feBlend mode="normal" in2="BackgroundImageFix" result="effect1_dropShadow_2572_6457"/>
<feBlend mode="normal" in="SourceGraphic" in2="effect1_dropShadow_2572_6457" result="shape"/>
<feColorMatrix in="SourceAlpha" type="matrix" values="0 0 0 0 0 0 0 0 0 0 0 0 0 0 0 0 0 0 127 0" result="hardAlpha"/>
<feOffset dx="1.5" dy="1.5"/>
<feGaussianBlur stdDeviation="0.9"/>
<feComposite in2="hardAlpha" operator="arithmetic" k2="-1" k3="1"/>
<feColorMatrix type="matrix" values="0 0 0 0 1 0 0 0 0 1 0 0 0 0 1 0 0 0 0.2 0"/>
<feBlend mode="normal" in2="shape" result="effect2_innerShadow_2572_6457"/>
<feColorMatrix in="SourceAlpha" type="matrix" values="0 0 0 0 0 0 0 0 0 0 0 0 0 0 0 0 0 0 127 0" result="hardAlpha"/>
<feOffset dx="-1.8" dy="-0.9"/>
<feGaussianBlur stdDeviation="0.9"/>
<feComposite in2="hardAlpha" operator="arithmetic" k2="-1" k3="1"/>
<feColorMatrix type="matrix" values="0 0 0 0 1 0 0 0 0 1 0 0 0 0 1 0 0 0 0.1 0"/>
<feBlend mode="normal" in2="effect2_innerShadow_2572_6457" result="effect3_innerShadow_2572_6457"/>
</filter>
<clipPath id="bgblur_4_2572_6457_clip_path" transform="translate(-49.8987 -51.8)"><path d="M51.6987 69.9643C51.6987 74.4007 55.2821 78 59.6987 78H76.5876C80.5154 78 83.6987 74.8025 83.6987 70.8571C83.6987 68.5371 82.5988 66.4743 80.8928 65.1708C80.2164 64.6539 79.9042 63.7322 80.0563 62.8946C80.1133 62.5809 80.1432 62.2579 80.1432 61.9286C80.1432 58.971 77.7543 56.5714 74.8098 56.5714C74.3843 56.5714 73.9713 56.6216 73.5758 56.716C72.7423 56.915 71.7965 56.6553 71.2589 55.988C69.7918 54.1666 67.5474 53 65.0321 53C60.6154 53 57.0321 56.5993 57.0321 61.0357C57.0321 61.0536 57.0321 61.0715 57.0323 61.0893C57.0373 61.8193 56.6238 62.5051 55.9785 62.8463C53.4345 64.1913 51.6987 66.8758 51.6987 69.9643Z"/>
</clipPath><filter id="filter5_dii_2572_6457" x="41.65" y="12.5" width="20.4307" height="25.4376" filterUnits="userSpaceOnUse" color-interpolation-filters="sRGB">
<feFlood flood-opacity="0" result="BackgroundImageFix"/>
<feColorMatrix in="SourceAlpha" type="matrix" values="0 0 0 0 0 0 0 0 0 0 0 0 0 0 0 0 0 0 127 0" result="hardAlpha"/>
<feOffset dy="1.36579"/>
<feGaussianBlur stdDeviation="0.682895"/>
<feComposite in2="hardAlpha" operator="out"/>
<feColorMatrix type="matrix" values="0 0 0 0 0.4 0 0 0 0 0.407843 0 0 0 0 0.513726 0 0 0 0.4 0"/>
<feBlend mode="normal" in2="BackgroundImageFix" result="effect1_dropShadow_2572_6457"/>
<feBlend mode="normal" in="SourceGraphic" in2="effect1_dropShadow_2572_6457" result="shape"/>
<feColorMatrix in="SourceAlpha" type="matrix" values="0 0 0 0 0 0 0 0 0 0 0 0 0 0 0 0 0 0 127 0" result="hardAlpha"/>
<feOffset dx="1.70724" dy="1.70724"/>
<feGaussianBlur stdDeviation="1.02434"/>
<feComposite in2="hardAlpha" operator="arithmetic" k2="-1" k3="1"/>
<feColorMatrix type="matrix" values="0 0 0 0 1 0 0 0 0 1 0 0 0 0 1 0 0 0 0.2 0"/>
<feBlend mode="normal" in2="shape" result="effect2_innerShadow_2572_6457"/>
<feColorMatrix in="SourceAlpha" type="matrix" values="0 0 0 0 0 0 0 0 0 0 0 0 0 0 0 0 0 0 127 0" result="hardAlpha"/>
<feOffset dx="-2.04868" dy="-1.02434"/>
<feGaussianBlur stdDeviation="1.02434"/>
<feComposite in2="hardAlpha" operator="arithmetic" k2="-1" k3="1"/>
<feColorMatrix type="matrix" values="0 0 0 0 1 0 0 0 0 1 0 0 0 0 1 0 0 0 0.1 0"/>
<feBlend mode="normal" in2="effect2_innerShadow_2572_6457" result="effect3_innerShadow_2572_6457"/>
</filter>
<clipPath id="bgblur_5_2572_6457_clip_path" transform="translate(-41.65 -12.5)"><path d="M43.7022 22.3649C43.7003 22.3649 43.6987 22.3663 43.6987 22.3682C43.7025 26.7989 51.1625 34.6611 51.4754 34.974C51.7851 35.2837 52.2871 35.2837 52.5967 34.974C52.9063 34.661 60.3734 26.7984 60.3734 22.3649C60.3734 17.9313 56.6416 14 52.0395 14C47.4386 14 43.7075 17.7437 43.7056 22.3614C43.7056 22.3633 43.7041 22.3649 43.7022 22.3649Z"/>
</clipPath><filter id="filter6_d_2572_6457" x="58.8678" y="6.11865" width="18.6619" height="21.4778" filterUnits="userSpaceOnUse" color-interpolation-filters="sRGB">
<feFlood flood-opacity="0" result="BackgroundImageFix"/>
<feColorMatrix in="SourceAlpha" type="matrix" values="0 0 0 0 0 0 0 0 0 0 0 0 0 0 0 0 0 0 127 0" result="hardAlpha"/>
<feOffset dy="4.83096"/>
<feGaussianBlur stdDeviation="2.41548"/>
<feComposite in2="hardAlpha" operator="out"/>
<feColorMatrix type="matrix" values="0 0 0 0 0 0 0 0 0 0 0 0 0 0 0 0 0 0 0.25 0"/>
<feBlend mode="normal" in2="BackgroundImageFix" result="effect1_dropShadow_2572_6457"/>
<feBlend mode="normal" in="SourceGraphic" in2="effect1_dropShadow_2572_6457" result="shape"/>
</filter>
<filter id="filter7_d_2572_6457" x="-0.000131607" y="39.7598" width="65.7498" height="64.8416" filterUnits="userSpaceOnUse" color-interpolation-filters="sRGB">
<feFlood flood-opacity="0" result="BackgroundImageFix"/>
<feColorMatrix in="SourceAlpha" type="matrix" values="0 0 0 0 0 0 0 0 0 0 0 0 0 0 0 0 0 0 127 0" result="hardAlpha"/>
<feOffset dy="12.2316"/>
<feGaussianBlur stdDeviation="15.7264"/>
<feComposite in2="hardAlpha" operator="out"/>
<feColorMatrix type="matrix" values="0 0 0 0 0.156863 0 0 0 0 0.0627451 0 0 0 0 0.0156863 0 0 0 0.35 0"/>
<feBlend mode="normal" in2="BackgroundImageFix" result="effect1_dropShadow_2572_6457"/>
<feBlend mode="normal" in="SourceGraphic" in2="effect1_dropShadow_2572_6457" result="shape"/>
</filter>
<clipPath id="bgblur_6_2572_6457_clip_path" transform="translate(0.000131607 -39.7598)"><path d="M33.2602 60.8596C33.9078 60.6939 34.2917 60.1926 34.2969 59.4841C34.2968 59.4783 34.2965 59.4713 34.2951 59.4659C34.2218 59.0055 33.4763 58.9122 32.7705 59.024C32.0646 59.1357 31.3848 59.456 31.4581 59.9163C31.4599 59.9231 31.4619 59.9311 31.4636 59.9379C31.7319 60.6554 32.3149 61.0054 33.0663 60.8978C33.1326 60.888 33.1983 60.8755 33.2602 60.8596ZM34.0671 59.4941C34.054 60.4241 33.3412 60.6266 33.034 60.6708C32.6632 60.724 31.996 60.6896 31.683 59.8703C31.6594 59.6267 32.1467 59.3557 32.8058 59.2516C33.1297 59.2003 33.4493 59.1989 33.6838 59.2464C33.814 59.2734 34.0335 59.3406 34.0657 59.4944L34.0671 59.4941Z"/>
</clipPath><linearGradient id="paint0_linear_2572_6457" x1="40.2057" y1="38.4327" x2="40.9318" y2="51.5776" gradientUnits="userSpaceOnUse">
<stop offset="0.0749297" stop-color="#C2C5DF" stop-opacity="0.4"/>
<stop offset="0.315388" stop-color="#666883" stop-opacity="0.6"/>
<stop offset="0.690045" stop-color="#666883" stop-opacity="0.7"/>
<stop offset="1" stop-color="#666883"/>
</linearGradient>
<linearGradient id="paint1_linear_2572_6457" x1="45.4409" y1="44.6111" x2="29.7888" y2="67.9485" gradientUnits="userSpaceOnUse">
<stop offset="0.0749297" stop-color="#C2C5DF" stop-opacity="0.4"/>
<stop offset="0.315388" stop-color="#666883" stop-opacity="0.7"/>
<stop offset="0.690045" stop-color="#666883"/>
<stop offset="1" stop-color="#666883"/>
</linearGradient>
<linearGradient id="paint2_linear_2572_6457" x1="75.3547" y1="7.25754" x2="46.1847" y2="50.7499" gradientUnits="userSpaceOnUse">
<stop offset="0.0749297" stop-color="#BB5712" stop-opacity="0.4"/>
<stop offset="0.315388" stop-color="#BB5712"/>
<stop offset="0.690045" stop-color="#BB5712"/>
<stop offset="1" stop-color="#BB5712"/>
</linearGradient>
<linearGradient id="paint3_linear_2572_6457" x1="78.0127" y1="33.452" x2="69.4751" y2="46.1815" gradientUnits="userSpaceOnUse">
<stop offset="0.0749297" stop-color="#BB5712" stop-opacity="0.4"/>
<stop offset="0.315388" stop-color="#BB5712"/>
<stop offset="0.690045" stop-color="#BB5712"/>
<stop offset="1" stop-color="#BB5712"/>
</linearGradient>
<linearGradient id="paint4_linear_2572_6457" x1="81.8692" y1="53.6944" x2="66.0625" y2="83.8611" gradientUnits="userSpaceOnUse">
<stop offset="0.0749297" stop-color="#C2C5DF" stop-opacity="0.4"/>
<stop offset="0.315388" stop-color="#C2C5DF"/>
<stop offset="0.690045" stop-color="#B4B7D7"/>
<stop offset="1" stop-color="#858ABF"/>
</linearGradient>
<linearGradient id="paint5_linear_2572_6457" x1="59.4201" y1="14.5982" x2="43.0298" y2="33.5209" gradientUnits="userSpaceOnUse">
<stop offset="0.0749297" stop-color="#EA7E26" stop-opacity="0.4"/>
<stop offset="0.315388" stop-color="#EA7E26"/>
<stop offset="0.690045" stop-color="#EA7E26"/>
<stop offset="1" stop-color="#EA7E26"/>
</linearGradient>
</defs>
</svg>
